<svg xmlns="http://www.w3.org/2000/svg" xmlns:xlink="http://www.w3.org/1999/xlink" viewBox="0 0 958.14 223.48"><defs><style>.cls-1{fill:none;}.cls-2{isolation:isolate;}.cls-3{clip-path:url(#clip-path);}.cls-4{fill:#810f13;}.cls-5{clip-path:url(#clip-path-2);}.cls-6{fill:#da1a21;}.cls-7{clip-path:url(#clip-path-3);}.cls-8{fill:#8b1015;}.cls-9{fill:#891015;}.cls-10{clip-path:url(#clip-path-4);}.cls-11{clip-path:url(#clip-path-5);}.cls-12{clip-path:url(#clip-path-6);}.cls-13{fill:#780e12;}.cls-14{clip-path:url(#clip-path-7);}.cls-15{clip-path:url(#clip-path-8);}.cls-16{clip-path:url(#clip-path-9);}.cls-17{clip-path:url(#clip-path-10);}.cls-18{clip-path:url(#clip-path-11);}.cls-19{clip-path:url(#clip-path-12);}.cls-20{clip-path:url(#clip-path-13);}.cls-21{clip-path:url(#clip-path-14);}.cls-22{clip-path:url(#clip-path-15);}.cls-23{clip-path:url(#clip-path-16);}.cls-24{clip-path:url(#clip-path-17);}.cls-25{clip-path:url(#clip-path-18);}.cls-26{clip-path:url(#clip-path-19);}.cls-27{clip-path:url(#clip-path-20);}.cls-28{fill:#770e12;}.cls-29{clip-path:url(#clip-path-21);}.cls-30{clip-path:url(#clip-path-22);}.cls-31{clip-path:url(#clip-path-23);}.cls-32{clip-path:url(#clip-path-24);}.cls-33{clip-path:url(#clip-path-25);}.cls-34{clip-path:url(#clip-path-26);}.cls-35{clip-path:url(#clip-path-27);}.cls-36{clip-path:url(#clip-path-28);}.cls-37{clip-path:url(#clip-path-29);}.cls-38{clip-path:url(#clip-path-30);}.cls-39{clip-path:url(#clip-path-31);}.cls-40{clip-path:url(#clip-path-32);}.cls-41{clip-path:url(#clip-path-33);}.cls-42{clip-path:url(#clip-path-34);}.cls-43{clip-path:url(#clip-path-35);}.cls-44{clip-path:url(#clip-path-36);}.cls-45{clip-path:url(#clip-path-37);}.cls-46{clip-path:url(#clip-path-38);}.cls-47{clip-path:url(#clip-path-39);}.cls-48{clip-path:url(#clip-path-40);}.cls-49{clip-path:url(#clip-path-41);}.cls-50{clip-path:url(#clip-path-42);}.cls-51{clip-path:url(#clip-path-43);}.cls-52{clip-path:url(#clip-path-44);}.cls-53{clip-path:url(#clip-path-45);}.cls-54{clip-path:url(#clip-path-46);}.cls-55{clip-path:url(#clip-path-47);}.cls-56{clip-path:url(#clip-path-48);}.cls-57{clip-path:url(#clip-path-49);}.cls-58{clip-path:url(#clip-path-50);}.cls-59{clip-path:url(#clip-path-51);}.cls-60{fill:#8a1015;}.cls-61{clip-path:url(#clip-path-52);}.cls-62{clip-path:url(#clip-path-53);}.cls-63{clip-path:url(#clip-path-54);}.cls-64{clip-path:url(#clip-path-55);}.cls-65{clip-path:url(#clip-path-56);}.cls-66{clip-path:url(#clip-path-57);}.cls-67{clip-path:url(#clip-path-58);}.cls-68{clip-path:url(#clip-path-59);}</style><clipPath id="clip-path"><path class="cls-1" d="M915.25,213v1.71q-6.93-4-6.92-16V197Q908.33,209,915.25,213Z"/></clipPath><clipPath id="clip-path-2"><path class="cls-1" d="M933.68,217v1.71H932.4c-7.37,0-13.14-1.33-17.15-4V213c4,2.68,9.78,4,17.15,4Z"/></clipPath><clipPath id="clip-path-3"><path class="cls-1" d="M958.14,198.15v1.71c0,7.5-2.3,12.49-6.74,15.16-4.16,2.51-9.57,3.68-16.39,3.68h-1.33V217H935c6.82,0,12.23-1.17,16.39-3.68C955.84,210.64,958.14,205.65,958.14,198.15Z"/></clipPath><clipPath id="clip-path-4"><path class="cls-1" d="M162.37,202.32V204a20,20,0,0,1-3.55,11.33v-1.71A20,20,0,0,0,162.37,202.32Z"/></clipPath><clipPath id="clip-path-5"><path class="cls-1" d="M5.15,214.15v1.71A16.13,16.13,0,0,1,0,205v-1.71A16.13,16.13,0,0,0,5.15,214.15Z"/></clipPath><clipPath id="clip-path-6"><path class="cls-1" d="M158.82,213.65v1.71a13.36,13.36,0,0,1-10.28,5.49v-1.71A13.36,13.36,0,0,0,158.82,213.65Z"/></clipPath><clipPath id="clip-path-7"><path class="cls-1" d="M16.84,219.14v1.71a18.38,18.38,0,0,1-11.69-5v-1.71A18.38,18.38,0,0,0,16.84,219.14Z"/></clipPath><clipPath id="clip-path-8"><path class="cls-1" d="M735.42,122.2v1.71c0-11.24-2.47-19.38-7.85-24.47V97.73C733,102.82,735.42,111,735.42,122.2Z"/></clipPath><clipPath id="clip-path-9"><path class="cls-1" d="M661.8,124.89v-1.72c0-11.73,2.79-20.24,8-25.44,5.65-5.5,15.24-8.2,28.7-8.2,14.08,0,23.72,2.7,29,8.2v1.71c-5.31-5.5-15-8.2-29-8.2-13.46,0-23,2.7-28.7,8.2C664.59,104.64,661.8,113.15,661.8,124.89Z"/></clipPath><clipPath id="clip-path-10"><path class="cls-1" d="M784.6,130.12v1.71q0,3.1-.05,6.38V136.5Q784.6,133.23,784.6,130.12Z"/></clipPath><clipPath id="clip-path-11"><path class="cls-1" d="M735.08,160v1.71c0-.45,0-.91,0-1.37v-1.71C735.07,159.13,735.08,159.59,735.08,160Z"/></clipPath><clipPath id="clip-path-12"><path class="cls-1" d="M661.48,164.64v-1.71q0-1.67.09-3.42v1.71Q661.48,163,661.48,164.64Z"/></clipPath><clipPath id="clip-path-13"><path class="cls-1" d="M784.55,136.5v1.71c0,24.53-1.86,42.67-5.15,54.7V191.2C782.69,179.17,784.55,161,784.55,136.5Z"/></clipPath><clipPath id="clip-path-14"><path class="cls-1" d="M779.4,191.2v1.71c-3.78,11.92-11.85,19.77-24.29,23.64-10.88,3.24-27.45,4.91-49.67,4.91q-4.11,0-8.46-.07v-1.71q4.35.07,8.46.07c22.22,0,38.79-1.67,49.67-4.91C767.55,211,775.62,203.12,779.4,191.2Z"/></clipPath><clipPath id="clip-path-15"><path class="cls-1" d="M612.37,151v-1.71c0,20.21,1.58,35.21,5.15,45.22,4.07,11.14,12.23,18.18,24.66,21.16q16,4.11,45.75,4.12c2.92,0,5.93,0,9.05-.09v1.71c-3.12.06-6.13.09-9.05.09q-29.79,0-45.75-4.12c-12.43-3-20.59-10-24.66-21.16C614,186.19,612.37,171.19,612.37,151Z"/></clipPath><clipPath id="clip-path-16"><path class="cls-1" d="M826.17,213v1.71q-6.9-4-6.91-16V197Q819.26,209,826.17,213Z"/></clipPath><clipPath id="clip-path-17"><path class="cls-1" d="M844.6,217v1.71h-1.27c-7.36,0-13.13-1.33-17.16-4V213c4,2.68,9.8,4,17.16,4Z"/></clipPath><clipPath id="clip-path-18"><path class="cls-1" d="M869.07,198.15v1.71c0,7.5-2.31,12.49-6.74,15.16-4.16,2.51-9.58,3.68-16.39,3.68H844.6V217h1.34c6.81,0,12.23-1.17,16.39-3.68C866.76,210.64,869.07,205.65,869.07,198.15Z"/></clipPath><clipPath id="clip-path-19"><path class="cls-1" d="M294.57,125.94v1.71c0-13.09-11.45-23.88-25.45-23.88v-1.71C283.12,102.06,294.57,112.85,294.57,125.94Z"/></clipPath><clipPath id="clip-path-20"><path class="cls-1" d="M250.8,102.06v1.71c-14,0-25.49,10.79-25.49,23.88v-1.71C225.31,112.85,236.8,102.06,250.8,102.06Z"/></clipPath><clipPath id="clip-path-21"><path class="cls-1" d="M334.5,216.93v1.71c-8.93,0-16.31-6.27-17.09-14.62v-1.71C318.19,210.66,325.57,216.93,334.5,216.93Z"/></clipPath><clipPath id="clip-path-22"><path class="cls-1" d="M357.15,201v1.71c0,8.82-7.62,15.9-17,15.9v-1.71C349.53,216.93,357.15,209.85,357.15,201Z"/></clipPath><clipPath id="clip-path-23"><path class="cls-1" d="M316.75,194.49v1.71c-9.38,18.18-35.07,27.05-53.52,27.28h-1c-48.28,0-83.91-28.34-83.91-82.26v-1.71c0,53.92,35.63,82.26,83.91,82.26h1C281.68,221.54,307.37,212.67,316.75,194.49Z"/></clipPath><clipPath id="clip-path-24"><path class="cls-1" d="M544,24.53v1.71a51.21,51.21,0,0,1-12.39,1.24c-3.27,0-6.58-.15-9.9-.2V25.57c3.32.05,6.63.2,9.9.2A51.21,51.21,0,0,0,544,24.53Z"/></clipPath><clipPath id="clip-path-25"><path class="cls-1" d="M522.84,21.54v1.71A34,34,0,0,0,505.21,28V26.27A34,34,0,0,1,522.84,21.54Z"/></clipPath><clipPath id="clip-path-26"><path class="cls-1" d="M505.21,26.27V28c-.41-1.43-.75-2.72-1.15-4.24V22C504.46,23.55,504.8,24.84,505.21,26.27Z"/></clipPath><clipPath id="clip-path-27"><path class="cls-1" d="M544.65,30.4v1.71a26.85,26.85,0,0,0-.65-5.87V24.53A26.85,26.85,0,0,1,544.65,30.4Z"/></clipPath><clipPath id="clip-path-28"><path class="cls-1" d="M486.81,31.75v1.71c-.71-1.18-1.35-2.36-2.13-3.63V28.12C485.46,29.39,486.1,30.57,486.81,31.75Z"/></clipPath><clipPath id="clip-path-29"><path class="cls-1" d="M504.06,22v1.71a42.45,42.45,0,0,0-17.25,9.72V31.75A42.45,42.45,0,0,1,504.06,22Z"/></clipPath><clipPath id="clip-path-30"><path class="cls-1" d="M471.37,42.49V44.2c-.91-1-1.78-2-2.71-3.07V39.42C469.59,40.54,470.46,41.52,471.37,42.49Z"/></clipPath><clipPath id="clip-path-31"><path class="cls-1" d="M484.68,28.12v1.71A52.2,52.2,0,0,0,471.37,44.2V42.49A52.2,52.2,0,0,1,484.68,28.12Z"/></clipPath><clipPath id="clip-path-32"><path class="cls-1" d="M544.61,43.88v1.71c-1.29.18-2.34.35-3.56.51V44.39C542.27,44.23,543.32,44.06,544.61,43.88Z"/></clipPath><clipPath id="clip-path-33"><path class="cls-1" d="M543.39,62.15v1.71c-1.46-.31-2.75-.62-4.13-.91V61.24C540.64,61.53,541.93,61.84,543.39,62.15Z"/></clipPath><clipPath id="clip-path-34"><path class="cls-1" d="M468.66,39.42v1.71c-.54.64-10.8,12.85-11.85,24.17V63.59C457.86,52.27,468.12,40.06,468.66,39.42Z"/></clipPath><clipPath id="clip-path-35"><path class="cls-1" d="M456.8,66.54V64.83c0-.46,0-.87,0-1.24V65.3C456.8,65.67,456.8,66.08,456.8,66.54Z"/></clipPath><clipPath id="clip-path-36"><path class="cls-1" d="M601.52,61.41v1.71q0,2.12-.06,4.29V65.7Q601.52,63.53,601.52,61.41Z"/></clipPath><clipPath id="clip-path-37"><path class="cls-1" d="M538.1,81.27V83c-1.39-.64-2.71-1.21-4.16-1.79V79.48C535.39,80.06,536.71,80.63,538.1,81.27Z"/></clipPath><clipPath id="clip-path-38"><path class="cls-1" d="M601.5,69v1.71a94.86,94.86,0,0,1-.66,11.55c-.21,1.59-.37,3.25-.69,4.87V85.38c.32-1.62.48-3.28.69-4.87A94.86,94.86,0,0,0,601.5,69Z"/></clipPath><clipPath id="clip-path-39"><path class="cls-1" d="M521.9,42.69V44.4C483.15,66.68,472.18,86.91,469.14,97V95.28C472.18,85.2,483.15,65,521.9,42.69Z"/></clipPath><clipPath id="clip-path-40"><path class="cls-1" d="M600.15,85.38v1.71a52.09,52.09,0,0,1-6.39,19.08v-1.71A52.09,52.09,0,0,0,600.15,85.38Z"/></clipPath><clipPath id="clip-path-41"><path class="cls-1" d="M593.76,104.46v1.71a71.07,71.07,0,0,1-11,12.46c-4.57,4.33-7.29,8.7-7.62,12.54v-1.72c.33-3.83,3.05-8.2,7.62-12.53A71.07,71.07,0,0,0,593.76,104.46Z"/></clipPath><clipPath id="clip-path-42"><path class="cls-1" d="M501.33,134.64v1.71a97,97,0,0,0-14.5-1,124.47,124.47,0,0,0-13.91.79v-1.71a124.47,124.47,0,0,1,13.91-.79A97,97,0,0,1,501.33,134.64Z"/></clipPath><clipPath id="clip-path-43"><path class="cls-1" d="M504.67,135.22v1.71a26.31,26.31,0,0,0-3.34-.58v-1.71A26.31,26.31,0,0,1,504.67,135.22Z"/></clipPath><clipPath id="clip-path-44"><path class="cls-1" d="M472.92,134.41v1.71a28,28,0,0,0-5.43,1v-1.71A28,28,0,0,1,472.92,134.41Z"/></clipPath><clipPath id="clip-path-45"><path class="cls-1" d="M467.49,135.37v1.71a3.41,3.41,0,0,0-1.52.28v-1.71A3.41,3.41,0,0,1,467.49,135.37Z"/></clipPath><clipPath id="clip-path-46"><path class="cls-1" d="M466,135.65v1.71a34.14,34.14,0,0,0-3.67.81v-1.71A34.14,34.14,0,0,1,466,135.65Z"/></clipPath><clipPath id="clip-path-47"><path class="cls-1" d="M510.26,136.58v1.71a23.27,23.27,0,0,0-5.59-1.36v-1.71A23.27,23.27,0,0,1,510.26,136.58Z"/></clipPath><clipPath id="clip-path-48"><path class="cls-1" d="M462.3,136.46v1.71c-1,.42-2.06.85-3.05,1.23v-1.71C460.24,137.31,461.31,136.88,462.3,136.46Z"/></clipPath><clipPath id="clip-path-49"><path class="cls-1" d="M513.14,138v1.71a17.79,17.79,0,0,0-2.88-1.38v-1.71A17.79,17.79,0,0,1,513.14,138Z"/></clipPath><clipPath id="clip-path-50"><path class="cls-1" d="M515.17,139.48v1.71a15.79,15.79,0,0,0-2-1.52V138A15.79,15.79,0,0,1,515.17,139.48Z"/></clipPath><clipPath id="clip-path-51"><path class="cls-1" d="M459.25,137.69v1.71c-5,2.33-7.74,6.7-8.31,13.58v-1.71C451.51,144.39,454.27,140,459.25,137.69Z"/></clipPath><clipPath id="clip-path-52"><path class="cls-1" d="M548.64,212.45v1.71c-4-3.84-6.8-10.57-8.49-20.12a191.39,191.39,0,0,0-7.77-29.83,44.37,44.37,0,0,0-17.21-23v-1.71a44.37,44.37,0,0,1,17.21,23,191.39,191.39,0,0,1,7.77,29.83C541.84,201.88,544.68,208.61,548.64,212.45Z"/></clipPath><clipPath id="clip-path-53"><path class="cls-1" d="M400.58,212.87v1.71a10.31,10.31,0,0,1-5-9.21v-1.71A10.31,10.31,0,0,0,400.58,212.87Z"/></clipPath><clipPath id="clip-path-54"><path class="cls-1" d="M450.2,202.11v1.71c-.34,6.81-3.55,11-9.35,12.81v-1.71C446.65,213.14,449.86,208.92,450.2,202.11Z"/></clipPath><clipPath id="clip-path-55"><path class="cls-1" d="M600.15,201.45v1.71c-.62,8.79-4.49,13.58-11.58,15v-1.71C595.66,215,599.53,210.24,600.15,201.45Z"/></clipPath><clipPath id="clip-path-56"><path class="cls-1" d="M557.24,216.7v1.71a20.47,20.47,0,0,1-8.6-4.25v-1.71A20.47,20.47,0,0,0,557.24,216.7Z"/></clipPath><clipPath id="clip-path-57"><path class="cls-1" d="M412.15,216.7v1.71a30.47,30.47,0,0,1-11.57-3.83v-1.71A30.47,30.47,0,0,0,412.15,216.7Z"/></clipPath><clipPath id="clip-path-58"><path class="cls-1" d="M440.85,214.92v1.71a47.57,47.57,0,0,1-16.25,2.8h-1v-1.71h1A47.57,47.57,0,0,0,440.85,214.92Z"/></clipPath><clipPath id="clip-path-59"><path class="cls-1" d="M588.57,216.46v1.71a91.93,91.93,0,0,1-16.22,1.37c-1.73,0-3.47,0-5.19-.12v-1.71c1.72.08,3.46.12,5.19.12A91.93,91.93,0,0,0,588.57,216.46Z"/></clipPath></defs><title>hnAsset 20hn</title><g id="Layer_2" data-name="Layer 2"><g id="Layer_1-2" data-name="Layer 1"><g class="cls-2"><g class="cls-2"><g class="cls-3"><g class="cls-2"><path class="cls-4" d="M915.25,213v1.71q-6.93-4-6.92-16V197q0,12,6.92,16"/></g></g></g><g class="cls-2"><g class="cls-5"><g class="cls-2"><path class="cls-4" d="M933.68,217v1.71H932.4c-7.37,0-13.14-1.33-17.15-4V213c4,2.68,9.78,4,17.15,4h1.28"/></g></g></g><path class="cls-6" d="M934.56,1c7.09,0,13.12,1.32,17.73,4,5,2.82,5.54,10.75,5.54,18.07l.31,175.13c0,7.5-2.3,12.49-6.74,15.16-4.16,2.51-9.57,3.68-16.39,3.68H932.4c-7.37,0-13.14-1.33-17.15-4q-6.93-4-6.92-16V20.7a17.57,17.57,0,0,1,8.15-15.25Q923.4.93,934.56,1Z"/><g class="cls-2"><g class="cls-7"><g class="cls-2"><path class="cls-8" d="M958.14,198.15v1.71c0,5.7-1.33,9.95-3.92,12.83V211c2.59-2.88,3.92-7.13,3.92-12.83"/><path class="cls-4" d="M954.22,211v1.71A12.21,12.21,0,0,1,951.4,215c-4.16,2.51-9.57,3.68-16.39,3.68h-1.33V217H935c6.82,0,12.23-1.17,16.39-3.68a12.21,12.21,0,0,0,2.82-2.33"/></g></g></g></g><g class="cls-2"><polygon class="cls-9" points="57.08 16.1 57.08 17.81 55.84 170.05 55.84 168.34 57.08 16.1"/><g class="cls-2"><g class="cls-10"><g class="cls-2"><path class="cls-8" d="M162.37,202.32V204a20,20,0,0,1-3.55,11.33v-1.71a20,20,0,0,0,3.55-11.33"/></g></g></g><g class="cls-2"><g class="cls-11"><g class="cls-2"><path class="cls-4" d="M5.15,214.15v1.71A16.13,16.13,0,0,1,0,205v-1.71a16.13,16.13,0,0,0,5.15,10.83"/></g></g></g><path class="cls-6" d="M32.76,3a42.06,42.06,0,0,1,8.19,1,33.82,33.82,0,0,1,11,4c3.18,2,5,4.66,5.14,8.16L55.84,168.34a20.58,20.58,0,0,0,4.25,12.49c2.49,3.83,6.2,5.83,11.17,6h77.28a12.65,12.65,0,0,1,10.28,4.66,17.39,17.39,0,0,1,3.55,10.83,20,20,0,0,1-3.55,11.33,13.36,13.36,0,0,1-10.28,5.49H16.84a18.38,18.38,0,0,1-11.69-5A16.13,16.13,0,0,1,0,203.32V17.07c.18-3.5,3.91-7.13,7.45-9.13a41.14,41.14,0,0,1,11.87-4,45.85,45.85,0,0,1,8.51-1,21.74,21.74,0,0,1,2.48.13A21.45,21.45,0,0,1,32.76,3Z"/><g class="cls-2"><g class="cls-12"><g class="cls-2"><path class="cls-8" d="M158.82,213.65v1.71c-.28.37-.57.73-.87,1.06v-1.71c.3-.33.59-.69.87-1.06"/><path class="cls-4" d="M158,214.71v1.71a13.41,13.41,0,0,1-9.41,4.43v-1.71a13.41,13.41,0,0,0,9.41-4.43"/></g></g></g><rect class="cls-13" x="16.84" y="219.14" width="131.7" height="1.71"/><g class="cls-2"><g class="cls-14"><g class="cls-2"><path class="cls-4" d="M16.84,219.14v1.71a18.38,18.38,0,0,1-11.69-5v-1.71a18.38,18.38,0,0,0,11.69,5"/></g></g></g></g><g class="cls-2"><g class="cls-2"><g class="cls-15"><g class="cls-2"><path class="cls-4" d="M735.42,122.2v1.71c0-11.24-2.47-19.38-7.85-24.47V97.73c5.38,5.09,7.85,13.23,7.85,24.47"/></g></g></g><g class="cls-2"><g class="cls-16"><g class="cls-2"><path class="cls-4" d="M727.57,97.73v1.71c-5.31-5.5-15-8.2-29-8.2-13.46,0-23,2.7-28.7,8.2-.28.28-.56.58-.83.88V98.61c.27-.3.55-.6.83-.88,5.65-5.5,15.24-8.2,28.7-8.2,14.08,0,23.72,2.7,29,8.2"/><path class="cls-8" d="M669,98.61v1.71c-4.72,5.25-7.21,13.47-7.21,24.57v-1.72c0-11.09,2.49-19.31,7.21-24.56"/></g></g></g><g class="cls-2"><g class="cls-17"><g class="cls-2"><path class="cls-8" d="M784.6,130.12v1.71q0,3.1-.05,6.38V136.5q0-3.27.05-6.38"/></g></g></g><polygon class="cls-9" points="661.82 124.66 661.82 126.37 661.57 161.22 661.57 159.51 661.82 124.66"/><g class="cls-2"><g class="cls-18"><g class="cls-2"><path class="cls-4" d="M735.08,160v1.71c0-.45,0-.91,0-1.37v-1.71c0,.46,0,.92,0,1.37"/></g></g></g><g class="cls-2"><g class="cls-19"><g class="cls-2"><path class="cls-8" d="M661.57,159.51v1.71q-.09,1.75-.09,3.42v-1.71q0-1.67.09-3.42"/></g></g></g><g class="cls-2"><g class="cls-20"><g class="cls-2"><path class="cls-8" d="M784.55,136.5v1.71c0,24.53-1.86,42.67-5.15,54.7V191.2c3.29-12,5.15-30.17,5.15-54.7"/></g></g></g><g class="cls-2"><g class="cls-21"><g class="cls-2"><path class="cls-8" d="M779.4,191.2v1.71A35.64,35.64,0,0,1,772,206.17v-1.71a35.64,35.64,0,0,0,7.38-13.26"/><path class="cls-4" d="M772,204.46v1.71a36.77,36.77,0,0,1-16.91,10.38c-10.88,3.24-27.45,4.91-49.67,4.91q-4.11,0-8.46-.07v-1.71q4.35.07,8.46.07c22.22,0,38.79-1.67,49.67-4.91A36.77,36.77,0,0,0,772,204.46"/></g></g></g><g class="cls-2"><g class="cls-22"><g class="cls-2"><path class="cls-4" d="M697,219.68v1.71c-3.12.06-6.13.09-9.05.09q-29.79,0-45.75-4.12c-12.43-3-20.59-10-24.66-21.16-3.57-10-5.15-25-5.15-45.22v-1.71c0,20.21,1.58,35.21,5.15,45.22,4.07,11.14,12.23,18.18,24.66,21.16q16,4.11,45.75,4.12c2.92,0,5.93,0,9.05-.09"/></g></g></g><path class="cls-6" d="M780.27,86.55q4.82,15.78,4.28,50c0,24.53-1.86,42.67-5.15,54.7-3.78,11.92-11.85,19.77-24.29,23.64-10.88,3.24-27.45,4.91-49.67,4.91q-4.11,0-8.46-.07c-3.12.06-6.13.09-9.05.09q-29.79,0-45.75-4.12c-12.43-3-20.59-10-24.66-21.16-3.92-11-5.44-28-5.11-51.27,0-25,2.31-43.32,6.71-54.89,4.65-11.61,13.26-18.92,26.6-22.09,11.21-2.79,27.26-4.12,48.09-4.12,3.18,0,6.48,0,9.88.09q4.88-.09,9.39-.09c19.74,0,34.56,1.33,44.67,4.12C769.24,69.1,776.93,75.68,780.27,86.55Zm-44.88,37.84c.33-12.38-2.1-21.25-7.82-26.66-5.31-5.5-15-8.2-29-8.2-13.46,0-23,2.7-28.7,8.2-5.47,5.41-8.27,14.43-8,26.93l-.24,34.85c-.62,12.5,2.1,21.13,7.53,26.12s14.2,7.36,27,7.36h3.15c13.47,0,22.92-2.38,28-7.36,5.39-5.11,7.93-14.12,7.74-27l.32-17V124.39"/></g><g class="cls-2"><g class="cls-2"><g class="cls-23"><g class="cls-2"><path class="cls-4" d="M826.17,213v1.71q-6.9-4-6.91-16V197q0,12,6.91,16"/></g></g></g><g class="cls-2"><g class="cls-24"><g class="cls-2"><path class="cls-4" d="M844.6,217v1.71h-1.27c-7.36,0-13.13-1.33-17.16-4V213c4,2.68,9.8,4,17.16,4h1.27"/></g></g></g><path class="cls-6" d="M845.5,1c7.08,0,13.11,1.32,17.72,4,5,2.82,5.55,10.75,5.55,18.07l.3,175.13c0,7.5-2.31,12.49-6.74,15.16-4.16,2.51-9.58,3.68-16.39,3.68h-2.61c-7.36,0-13.13-1.33-17.16-4q-6.9-4-6.91-16V20.7a17.59,17.59,0,0,1,8.15-15.25Q834.33.93,845.5,1Z"/><g class="cls-2"><g class="cls-25"><g class="cls-2"><path class="cls-8" d="M869.07,198.15v1.71c0,5.7-1.34,10-3.92,12.84V211c2.58-2.88,3.92-7.14,3.92-12.84"/><path class="cls-4" d="M865.15,211v1.71a12.17,12.17,0,0,1-2.82,2.32c-4.16,2.51-9.58,3.68-16.39,3.68H844.6V217h1.34c6.81,0,12.23-1.17,16.39-3.68a12.17,12.17,0,0,0,2.82-2.32"/></g></g></g></g><g class="cls-2"><rect class="cls-13" x="250.8" y="102.06" width="18.31" height="1.71"/><g class="cls-2"><g class="cls-26"><g class="cls-2"><path class="cls-4" d="M294.57,125.94v1.71c0-13.09-11.45-23.88-25.45-23.88v-1.71c14,0,25.45,10.79,25.45,23.88"/></g></g></g><g class="cls-2"><g class="cls-27"><g class="cls-2"><path class="cls-4" d="M250.8,102.06v1.71a26.17,26.17,0,0,0-19.5,8.58v-1.71a26.17,26.17,0,0,1,19.5-8.58"/><path class="cls-8" d="M231.3,110.64v1.71a22.85,22.85,0,0,0-6,15.3v-1.71a22.85,22.85,0,0,1,6-15.3"/></g></g></g><polygon class="cls-28" points="317.41 202.31 317.41 204.02 316.75 196.2 316.75 194.49 317.41 202.31"/><g class="cls-2"><g class="cls-29"><g class="cls-2"><path class="cls-4" d="M334.5,216.93v1.71c-8.93,0-16.31-6.27-17.09-14.62v-1.71c.78,8.35,8.16,14.62,17.09,14.62"/></g></g></g><rect class="cls-13" x="334.5" y="216.93" width="5.64" height="1.71"/><g class="cls-2"><g class="cls-30"><g class="cls-2"><path class="cls-8" d="M357.15,201v1.71a15.22,15.22,0,0,1-4,10.22v-1.71a15.22,15.22,0,0,0,4-10.22"/><path class="cls-4" d="M353.18,211.25V213a17.44,17.44,0,0,1-13,5.68v-1.71a17.44,17.44,0,0,0,13-5.68"/></g></g></g><path class="cls-6" d="M340.15,62.21c9.38,0,17,7.2,17,16V201c0,8.82-7.62,15.9-17,15.9H334.5c-8.93,0-16.31-6.27-17.09-14.62l-.66-7.82c-9.38,18.18-35.07,27-53.52,27.28h-1c-48.28,0-83.91-28.34-83.91-82.26,0-53.1,37.21-81.09,84.95-81.09h1c22,0,43.1,9.79,52.48,25.11v-14c0-7,6.39-7.35,7.29-7.35ZM294.57,156.5V125.94c0-13.09-11.45-23.88-25.45-23.88H250.8c-14,0-25.49,10.79-25.49,23.88V156.5c0,13.23,11.49,23.94,25.49,23.94h18.32c14,0,25.45-10.71,25.45-23.94"/><g class="cls-2"><g class="cls-31"><g class="cls-2"><path class="cls-8" d="M316.75,194.49v1.71a36.36,36.36,0,0,1-5.31,7.63v-1.71a36.36,36.36,0,0,0,5.31-7.63"/><path class="cls-4" d="M311.44,202.12v1.71c-11.7,13-32.56,19.45-48.21,19.65h-1c-48.28,0-83.91-28.34-83.91-82.26v-1.71c0,53.92,35.63,82.26,83.91,82.26h1c15.65-.2,36.51-6.61,48.21-19.65"/></g></g></g></g><g class="cls-2"><g class="cls-2"><g class="cls-32"><g class="cls-2"><path class="cls-4" d="M544,24.53v1.71a51.21,51.21,0,0,1-12.39,1.24c-3.27,0-6.58-.15-9.9-.2V25.57c3.32.05,6.63.2,9.9.2A51.21,51.21,0,0,0,544,24.53"/></g></g></g><g class="cls-2"><g class="cls-33"><g class="cls-2"><path class="cls-4" d="M522.84,21.54v1.71A34,34,0,0,0,505.21,28V26.27a34,34,0,0,1,17.63-4.73"/></g></g></g><g class="cls-2"><g class="cls-34"><g class="cls-2"><path class="cls-4" d="M505.21,26.27V28c-.41-1.43-.75-2.72-1.15-4.24V22c.4,1.52.74,2.81,1.15,4.24"/></g></g></g><g class="cls-2"><g class="cls-35"><g class="cls-2"><path class="cls-4" d="M544.65,30.4v1.71a26.85,26.85,0,0,0-.65-5.87V24.53a26.85,26.85,0,0,1,.65,5.87"/></g></g></g><g class="cls-2"><g class="cls-36"><g class="cls-2"><path class="cls-4" d="M486.81,31.75v1.71c-.71-1.18-1.35-2.36-2.13-3.63V28.12c.78,1.27,1.42,2.45,2.13,3.63"/></g></g></g><g class="cls-2"><g class="cls-37"><g class="cls-2"><path class="cls-4" d="M504.06,22v1.71a42.45,42.45,0,0,0-17.25,9.72V31.75A42.45,42.45,0,0,1,504.06,22"/></g></g></g><g class="cls-2"><g class="cls-38"><g class="cls-2"><path class="cls-4" d="M471.37,42.49V44.2c-.91-1-1.78-2-2.71-3.07V39.42c.93,1.12,1.8,2.1,2.71,3.07"/></g></g></g><g class="cls-2"><g class="cls-39"><g class="cls-2"><path class="cls-4" d="M484.68,28.12v1.71a50.15,50.15,0,0,0-7.78,7V35.16a50.15,50.15,0,0,1,7.78-7"/><path class="cls-8" d="M476.9,35.16v1.71a55.6,55.6,0,0,0-5.53,7.33V42.49a55.6,55.6,0,0,1,5.53-7.33"/></g></g></g><g class="cls-2"><g class="cls-40"><g class="cls-2"><path class="cls-4" d="M544.61,43.88v1.71c-1.29.18-2.34.35-3.56.51V44.39c1.22-.16,2.27-.33,3.56-.51"/></g></g></g><g class="cls-2"><g class="cls-41"><g class="cls-2"><path class="cls-4" d="M543.39,62.15v1.71c-1.46-.31-2.75-.62-4.13-.91V61.24c1.38.29,2.67.6,4.13.91"/></g></g></g><g class="cls-2"><g class="cls-42"><g class="cls-2"><path class="cls-8" d="M468.66,39.42v1.71c-.54.64-10.8,12.85-11.85,24.17V63.59c1.05-11.32,11.31-23.53,11.85-24.17"/></g></g></g><g class="cls-2"><g class="cls-43"><g class="cls-2"><path class="cls-8" d="M456.81,63.59V65.3c0,.37,0,.78,0,1.24V64.83c0-.46,0-.87,0-1.24"/></g></g></g><g class="cls-2"><g class="cls-44"><g class="cls-2"><path class="cls-8" d="M601.52,61.41v1.71q0,2.12-.06,4.29V65.7q.06-2.18.06-4.29"/></g></g></g><g class="cls-2"><g class="cls-45"><g class="cls-2"><path class="cls-4" d="M538.1,81.27V83c-1.39-.64-2.71-1.21-4.16-1.79V79.48c1.45.58,2.77,1.15,4.16,1.79"/></g></g></g><g class="cls-2"><g class="cls-46"><g class="cls-2"><path class="cls-8" d="M601.5,69v1.71a94.86,94.86,0,0,1-.66,11.55c-.21,1.59-.37,3.25-.69,4.87V85.38c.32-1.62.48-3.28.69-4.87A94.86,94.86,0,0,0,601.5,69"/></g></g></g><g class="cls-2"><g class="cls-47"><g class="cls-2"><path class="cls-4" d="M521.9,42.69V44.4c-18.76,10.79-31,21.09-39,30V72.69c8-8.91,20.24-19.21,39-30"/><path class="cls-8" d="M482.9,72.69V74.4c-8.52,9.49-12.19,17.39-13.76,22.59V95.28c1.57-5.2,5.24-13.1,13.76-22.59"/></g></g></g><polygon class="cls-28" points="530.75 95.93 530.75 97.64 523.53 96.57 523.53 94.86 530.75 95.93"/><g class="cls-2"><g class="cls-48"><g class="cls-2"><path class="cls-8" d="M600.15,85.38v1.71a52.09,52.09,0,0,1-6.39,19.08v-1.71a52.09,52.09,0,0,0,6.39-19.08"/></g></g></g><g class="cls-2"><g class="cls-49"><g class="cls-2"><path class="cls-8" d="M593.76,104.46v1.71a53.86,53.86,0,0,1-5,6.41v-1.71a53.86,53.86,0,0,0,5-6.41"/><path class="cls-4" d="M588.75,110.87v1.71q-2.62,2.91-6,6c-.83.79-1.6,1.57-2.3,2.36v-1.71c.7-.79,1.47-1.57,2.3-2.36q3.36-3.14,6-6"/><path class="cls-8" d="M580.47,119.28V121c-3.18,3.54-5.05,7-5.32,10.18v-1.72c.27-3.13,2.14-6.63,5.32-10.17"/></g></g></g><g class="cls-2"><g class="cls-50"><g class="cls-2"><path class="cls-4" d="M501.33,134.64v1.71a97,97,0,0,0-14.5-1,124.47,124.47,0,0,0-13.91.79v-1.71a124.47,124.47,0,0,1,13.91-.79,97,97,0,0,1,14.5,1"/></g></g></g><g class="cls-2"><g class="cls-51"><g class="cls-2"><path class="cls-4" d="M504.67,135.22v1.71a26.31,26.31,0,0,0-3.34-.58v-1.71a26.31,26.31,0,0,1,3.34.58"/></g></g></g><g class="cls-2"><g class="cls-52"><g class="cls-2"><path class="cls-4" d="M472.92,134.41v1.71a28,28,0,0,0-5.43,1v-1.71a28,28,0,0,1,5.43-1"/></g></g></g><g class="cls-2"><g class="cls-53"><g class="cls-2"><path class="cls-4" d="M467.49,135.37v1.71a3.41,3.41,0,0,0-1.52.28v-1.71a3.41,3.41,0,0,1,1.52-.28"/></g></g></g><g class="cls-2"><g class="cls-54"><g class="cls-2"><path class="cls-4" d="M466,135.65v1.71a34.14,34.14,0,0,0-3.67.81v-1.71a34.14,34.14,0,0,1,3.67-.81"/></g></g></g><g class="cls-2"><g class="cls-55"><g class="cls-2"><path class="cls-4" d="M510.26,136.58v1.71a23.27,23.27,0,0,0-5.59-1.36v-1.71a23.27,23.27,0,0,1,5.59,1.36"/></g></g></g><g class="cls-2"><g class="cls-56"><g class="cls-2"><path class="cls-4" d="M462.3,136.46v1.71c-1,.42-2.06.85-3.05,1.23v-1.71c1-.38,2.06-.81,3.05-1.23"/></g></g></g><g class="cls-2"><g class="cls-57"><g class="cls-2"><path class="cls-4" d="M513.14,138v1.71a17.79,17.79,0,0,0-2.88-1.38v-1.71a17.79,17.79,0,0,1,2.88,1.38"/></g></g></g><g class="cls-2"><g class="cls-58"><g class="cls-2"><path class="cls-4" d="M515.17,139.48v1.71a15.79,15.79,0,0,0-2-1.52V138a15.79,15.79,0,0,1,2,1.52"/></g></g></g><g class="cls-2"><g class="cls-59"><g class="cls-2"><path class="cls-4" d="M459.25,137.69v1.71a13.56,13.56,0,0,0-4.42,3.23v-1.71a13.56,13.56,0,0,1,4.42-3.23"/><path class="cls-8" d="M454.83,140.92v1.71c-2.23,2.48-3.52,5.89-3.89,10.35v-1.71c.37-4.46,1.66-7.87,3.89-10.35"/></g></g></g><polygon class="cls-60" points="450.94 151.28 450.94 152.99 450.2 203.82 450.2 202.11 450.94 151.28"/><g class="cls-2"><g class="cls-61"><g class="cls-2"><path class="cls-4" d="M548.64,212.45v1.71c-4-3.84-6.8-10.57-8.49-20.12a191.39,191.39,0,0,0-7.77-29.83,44.37,44.37,0,0,0-17.21-23v-1.71a44.37,44.37,0,0,1,17.21,23,191.39,191.39,0,0,1,7.77,29.83c1.69,9.55,4.53,16.28,8.49,20.12"/></g></g></g><g class="cls-2"><g class="cls-62"><g class="cls-2"><path class="cls-4" d="M400.58,212.87v1.71a10.31,10.31,0,0,1-5-9.21v-1.71a10.31,10.31,0,0,0,5,9.21"/></g></g></g><g class="cls-2"><g class="cls-63"><g class="cls-2"><path class="cls-8" d="M450.2,202.11v1.71a14.26,14.26,0,0,1-3.3,9.12v-1.71a14.26,14.26,0,0,0,3.3-9.12"/><path class="cls-4" d="M446.9,211.23v1.71a13.09,13.09,0,0,1-6,3.69v-1.71a13.09,13.09,0,0,0,6-3.69"/></g></g></g><g class="cls-2"><g class="cls-64"><g class="cls-2"><path class="cls-8" d="M600.15,201.45v1.71c-.34,4.79-1.64,8.39-3.9,10.9v-1.71c2.26-2.51,3.56-6.11,3.9-10.9"/><path class="cls-4" d="M596.25,212.35v1.71a13.51,13.51,0,0,1-7.68,4.11v-1.71a13.51,13.51,0,0,0,7.68-4.11"/></g></g></g><g class="cls-2"><g class="cls-65"><g class="cls-2"><path class="cls-4" d="M557.24,216.7v1.71a20.47,20.47,0,0,1-8.6-4.25v-1.71a20.47,20.47,0,0,0,8.6,4.25"/></g></g></g><g class="cls-2"><g class="cls-66"><g class="cls-2"><path class="cls-4" d="M412.15,216.7v1.71a30.47,30.47,0,0,1-11.57-3.83v-1.71a30.47,30.47,0,0,0,11.57,3.83"/></g></g></g><polygon class="cls-13" points="423.64 217.71 423.64 219.42 412.15 218.41 412.15 216.7 423.64 217.71"/><polygon class="cls-13" points="567.16 217.71 567.16 219.42 557.24 218.41 557.24 216.7 567.16 217.71"/><g class="cls-2"><g class="cls-67"><g class="cls-2"><path class="cls-4" d="M440.85,214.92v1.71a47.57,47.57,0,0,1-16.25,2.8h-1v-1.71h1a47.57,47.57,0,0,0,16.25-2.8"/></g></g></g><path class="cls-6" d="M599,36.56a118.67,118.67,0,0,1,2.47,29.14,99.35,99.35,0,0,1-.62,14.81c-.21,1.59-.37,3.25-.69,4.87a52.09,52.09,0,0,1-6.39,19.08,71.07,71.07,0,0,1-11,12.46c-4.57,4.33-7.29,8.7-7.62,12.53,0,2.05.87,5.19,2.84,9.14l4.62,8.85,7.61,16.17,7,20.86c1.86,6.85,2.93,12.65,2.93,17-.62,8.79-4.49,13.58-11.58,15a91.93,91.93,0,0,1-16.22,1.37c-1.73,0-3.47,0-5.19-.12l-9.92-1a20.47,20.47,0,0,1-8.6-4.25c-4-3.84-6.8-10.57-8.49-20.12a191.39,191.39,0,0,0-7.77-29.83,44.37,44.37,0,0,0-17.21-23,15.79,15.79,0,0,0-2-1.52,17.79,17.79,0,0,0-2.88-1.38,23.27,23.27,0,0,0-5.59-1.36,26.31,26.31,0,0,0-3.34-.58,97,97,0,0,0-14.5-1,124.47,124.47,0,0,0-13.91.79,28,28,0,0,0-5.43,1,3.41,3.41,0,0,0-1.52.28,34.14,34.14,0,0,0-3.67.81c-1,.42-2.06.85-3.05,1.23-5,2.33-7.74,6.7-8.31,13.58l-.74,50.84c-.34,6.81-3.55,11-9.35,12.81a47.57,47.57,0,0,1-16.25,2.8h-1l-11.49-1a30.47,30.47,0,0,1-11.57-3.83,10.31,10.31,0,0,1-5-9.21l2-189.85c.33-3.86,2.51-7.15,6.46-9.63,4.2-2.59,8.28-4.1,12.23-4.18H540.69c3.46.12,7.54.35,11.86.81l6.26.93c1.52.15,3,.39,4.36.62l.7.12A66.18,66.18,0,0,1,575.77,6a32,32,0,0,1,5,2.63,30.23,30.23,0,0,1,5.89,4.84A44.1,44.1,0,0,1,599,36.56Zm-54.38,7.32c-1.29.18-2.34.35-3.56.51,3-6.19,4.57-12.61,3-19.86a51.21,51.21,0,0,1-12.39,1.24c-3.27,0-6.58-.15-9.9-.2.41-1.38.71-2.68,1.13-4a34,34,0,0,0-17.63,4.73c-.41-1.43-.75-2.72-1.15-4.24a42.45,42.45,0,0,0-17.25,9.72c-.71-1.18-1.35-2.36-2.13-3.63a52.2,52.2,0,0,0-13.31,14.37c-.91-1-1.78-2-2.71-3.07-.54.64-10.8,12.85-11.85,24.17-.1,4.1.15,13.84,5.38,23,23.36-34.11,57.89-43.41,59.71-43.9C483.15,65,472.18,85.2,469.14,95.28c11.65,2.09,25.84,11,38,11,.51,0,1,0,1.53,0,12.48-.83,21.61-9.86,22.09-10.34l-7.22-1.07A29.65,29.65,0,0,0,531.77,89a36,36,0,0,0,6.33-7.74c-1.39-.64-2.71-1.21-4.16-1.79,4.81-4.73,7.63-10.66,9.45-17.33-1.46-.31-2.75-.62-4.13-.91,3.15-5.3,5.26-10.9,5.35-17.36"/><g class="cls-2"><g class="cls-68"><g class="cls-2"><path class="cls-4" d="M588.57,216.46v1.71a91.93,91.93,0,0,1-16.22,1.37c-1.73,0-3.47,0-5.19-.12v-1.71c1.72.08,3.46.12,5.19.12a91.93,91.93,0,0,0,16.22-1.37"/></g></g></g></g></g></g></svg>