<svg xmlns="http://www.w3.org/2000/svg" xmlns:xlink="http://www.w3.org/1999/xlink" viewBox="0 0 1139.19 455.2"><defs><style>.cls-1{fill:none;}.cls-2{isolation:isolate;}.cls-3{clip-path:url(#clip-path);}.cls-4{fill:#560f13;}.cls-5{clip-path:url(#clip-path-2);}.cls-6{clip-path:url(#clip-path-3);}.cls-7{fill:#6e1218;}.cls-8{fill:#6a1217;}.cls-9{fill:#671116;}.cls-10{fill:#550e12;}.cls-11{clip-path:url(#clip-path-4);}.cls-12{fill:#91181f;}.cls-13{clip-path:url(#clip-path-5);}.cls-14{fill:#5a0f13;}.cls-15{fill:#5d1014;}.cls-16{fill:#601015;}.cls-17{fill:#641116;}.cls-18{clip-path:url(#clip-path-6);}.cls-19{fill:#540e12;}.cls-20{clip-path:url(#clip-path-7);}.cls-21{clip-path:url(#clip-path-8);}.cls-22{fill:#751419;}.cls-23{clip-path:url(#clip-path-9);}.cls-24{clip-path:url(#clip-path-10);}.cls-25{clip-path:url(#clip-path-11);}.cls-26{clip-path:url(#clip-path-12);}.cls-27{clip-path:url(#clip-path-13);}.cls-28{clip-path:url(#clip-path-14);}.cls-29{clip-path:url(#clip-path-15);}.cls-30{clip-path:url(#clip-path-16);}.cls-31{clip-path:url(#clip-path-17);}.cls-32{clip-path:url(#clip-path-18);}.cls-33{clip-path:url(#clip-path-19);}.cls-34{clip-path:url(#clip-path-20);}.cls-35{clip-path:url(#clip-path-21);}.cls-36{clip-path:url(#clip-path-22);}.cls-37{clip-path:url(#clip-path-23);}.cls-38{clip-path:url(#clip-path-24);}.cls-39{clip-path:url(#clip-path-25);}.cls-40{clip-path:url(#clip-path-26);}.cls-41{clip-path:url(#clip-path-27);}.cls-42{clip-path:url(#clip-path-28);}.cls-43{clip-path:url(#clip-path-29);}.cls-44{clip-path:url(#clip-path-30);}.cls-45{clip-path:url(#clip-path-31);}.cls-46{clip-path:url(#clip-path-32);}.cls-47{clip-path:url(#clip-path-33);}.cls-48{clip-path:url(#clip-path-34);}.cls-49{clip-path:url(#clip-path-35);}.cls-50{clip-path:url(#clip-path-36);}.cls-51{clip-path:url(#clip-path-37);}.cls-52{clip-path:url(#clip-path-38);}.cls-53{clip-path:url(#clip-path-39);}.cls-54{clip-path:url(#clip-path-40);}.cls-55{clip-path:url(#clip-path-41);}.cls-56{clip-path:url(#clip-path-42);}.cls-57{clip-path:url(#clip-path-43);}.cls-58{fill:#731319;}.cls-59{clip-path:url(#clip-path-44);}.cls-60{clip-path:url(#clip-path-45);}.cls-61{clip-path:url(#clip-path-46);}.cls-62{clip-path:url(#clip-path-47);}.cls-63{clip-path:url(#clip-path-48);}.cls-64{clip-path:url(#clip-path-49);}.cls-65{clip-path:url(#clip-path-50);}.cls-66{clip-path:url(#clip-path-51);}.cls-67{clip-path:url(#clip-path-52);}</style><clipPath id="clip-path"><path class="cls-1" d="M1089.93,300.31l-22.79-12.39c-.29-.16-.57-.33-.85-.5l22.79,12.4C1089.36,300,1089.64,300.16,1089.93,300.31Z"/></clipPath><clipPath id="clip-path-2"><path class="cls-1" d="M1089.08,299.82l-22.79-12.4q-8-4.21-8-20.27l22.79,12.4Q1081,295.62,1089.08,299.82Z"/></clipPath><clipPath id="clip-path-3"><path class="cls-1" d="M1112.12,12.92,1089.33.52C1097.59-.65,1104.61.15,1110,3l22.79,12.39C1127.4,12.55,1120.39,11.75,1112.12,12.92Z"/></clipPath><clipPath id="clip-path-4"><path class="cls-1" d="M1091.05,21.89l-22.79-12.4q8.06-7.14,21.07-9l22.79,12.4Q1099.12,14.74,1091.05,21.89Z"/></clipPath><clipPath id="clip-path-5"><path class="cls-1" d="M1081.51,43.65l-22.79-12.4a28.6,28.6,0,0,1,9.54-21.76l22.79,12.4A28.6,28.6,0,0,0,1081.51,43.65Z"/></clipPath><clipPath id="clip-path-6"><path class="cls-1" d="M401.7,398.37,378.9,386c-5-2.75-8.54-8.11-9.09-15l22.79,12.4C393.16,390.26,396.65,395.62,401.7,398.37Z"/></clipPath><clipPath id="clip-path-7"><path class="cls-1" d="M336.39,362.08l-22.79-12.4c16.31-2.29,29.67-18.51,29.71-36.21l22.79,12.4C366.07,343.57,352.7,359.79,336.39,362.08Z"/></clipPath><clipPath id="clip-path-8"><path class="cls-1" d="M407.19,181.65,430,194.05a16.94,16.94,0,0,0-10.54-1.82l-22.8-12.4A17,17,0,0,1,407.19,181.65Z"/></clipPath><clipPath id="clip-path-9"><path class="cls-1" d="M392.17,205.9l-22.79-12.4c0-9.32,7.45-10.88,8.5-11l22.8,12.4C399.63,195,392.19,196.58,392.17,205.9Z"/></clipPath><clipPath id="clip-path-10"><path class="cls-1" d="M299.23,362.35,276.43,350a25.42,25.42,0,0,0,15.83,2.73l22.79,12.4A25.39,25.39,0,0,1,299.23,362.35Z"/></clipPath><clipPath id="clip-path-11"><path class="cls-1" d="M329.57,247.52l22.79,12.4c8.31,4.52,13.84,13.75,13.82,25l-22.8-12.4C343.4,261.27,337.87,252,329.57,247.52Z"/></clipPath><clipPath id="clip-path-12"><path class="cls-1" d="M272.19,410.26l-22.8-12.39c-25.58-13.92-41.54-43.28-41.46-88.1.14-71.06,43.54-114.62,99.17-122.43l1.15-.16c15.31-2.15,30.22.42,42.07,6.87l22.79,12.39c-11.85-6.44-26.76-9-42.07-6.86l-1.15.16c-55.63,7.81-99,51.37-99.16,122.43C230.64,367,246.6,396.35,272.19,410.26Z"/></clipPath><clipPath id="clip-path-13"><path class="cls-1" d="M181.2,379.21l22.8,12.4a12.81,12.81,0,0,0-8.11-1.24L173.1,378A12.76,12.76,0,0,1,181.2,379.21Z"/></clipPath><clipPath id="clip-path-14"><path class="cls-1" d="M97.73,401.64l-22.79-12.4a13.74,13.74,0,0,0,8.12,1.38L105.85,403A13.74,13.74,0,0,1,97.73,401.64Z"/></clipPath><clipPath id="clip-path-15"><path class="cls-1" d="M32.5,453.13,9.7,440.73A18.11,18.11,0,0,1,6,438l22.8,12.4A17.85,17.85,0,0,0,32.5,453.13Z"/></clipPath><clipPath id="clip-path-16"><path class="cls-1" d="M28.76,450.4,6,438a19.9,19.9,0,0,1-6-13.64l22.79,12.39A19.87,19.87,0,0,0,28.76,450.4Z"/></clipPath><clipPath id="clip-path-17"><path class="cls-1" d="M60.76,154.27l22.79,12.4A31.74,31.74,0,0,0,71,163.25a41.47,41.47,0,0,0-9.55.05l-22.8-12.39a41,41,0,0,1,9.56-.06A31.79,31.79,0,0,1,60.76,154.27Z"/></clipPath><clipPath id="clip-path-18"><path class="cls-1" d="M58.61,163.87l-22.79-12.4a22.49,22.49,0,0,1,2.83-.56l22.8,12.39A24.18,24.18,0,0,0,58.61,163.87Z"/></clipPath><clipPath id="clip-path-19"><path class="cls-1" d="M23.26,187.51.46,175.11c.22-4.71,4.57-10.17,8.7-13.43A51.17,51.17,0,0,1,23,154.39a49.76,49.76,0,0,1,9.93-2.68,25,25,0,0,1,2.88-.24l22.79,12.4a25,25,0,0,0-2.88.24,49.51,49.51,0,0,0-9.92,2.68A51.23,51.23,0,0,0,32,174.08C27.82,177.33,23.47,182.8,23.26,187.51Z"/></clipPath><clipPath id="clip-path-20"><path class="cls-1" d="M835.66,308.68l-22.79-12.4,1.87-.25c15.7-2.2,26.72-6.92,32.69-14.44,6.29-7.71,9.28-20.2,9.08-37.35l22.8,12.39c.2,17.16-2.8,29.65-9.09,37.36-6,7.52-17,12.24-32.68,14.44Z"/></clipPath><clipPath id="clip-path-21"><path class="cls-1" d="M894.78,120.54l22.8,12.4a34.56,34.56,0,0,0-11.62-3.7l-22.79-12.4A34.72,34.72,0,0,1,894.78,120.54Z"/></clipPath><clipPath id="clip-path-22"><path class="cls-1" d="M806.43,306.43,783.63,294c6.3,3.42,15.37,4.22,27.45,2.52l1.79-.27,22.79,12.4-1.79.27C821.79,310.65,812.72,309.85,806.43,306.43Z"/></clipPath><clipPath id="clip-path-23"><path class="cls-1" d="M879.77,210.72,857,198.32c.41-16.62-2.4-28.09-9.05-34.4l22.8,12.4C877.38,182.63,880.18,194.1,879.77,210.72Z"/></clipPath><clipPath id="clip-path-24"><path class="cls-1" d="M843.19,160.33,866,172.73a19.22,19.22,0,0,1,4.75,3.59l-22.8-12.4A19.22,19.22,0,0,0,843.19,160.33Z"/></clipPath><clipPath id="clip-path-25"><path class="cls-1" d="M843,132.71l-22.8-12.4q5.67-.93,10.94-1.66c23-3.24,40.27-3.88,52-1.81L906,129.24c-11.77-2.07-29-1.43-52,1.81Q848.66,131.78,843,132.71Z"/></clipPath><clipPath id="clip-path-26"><path class="cls-1" d="M758.06,344.08l-22.79-12.4c-7.42-4-12.66-10.78-15.8-20.26-4.53-14.05-6.26-36.53-5.82-67.76.07-33.44,2.79-58.36,8-74.56,5.44-16.3,15.49-27.49,31-33.91,13.07-5.57,31.78-10,56.05-13.39q5.55-.78,11.49-1.49l22.8,12.4q-6,.71-11.5,1.49c-24.27,3.41-43,7.82-56,13.38-15.55,6.43-25.59,17.62-31,33.92-5.16,16.2-7.89,41.12-7.95,74.56-.45,31.23,1.28,53.71,5.81,67.76Q747,338,758.06,344.08Z"/></clipPath><clipPath id="clip-path-27"><path class="cls-1" d="M986.17,314.9l-22.79-12.4c-.3-.16-.58-.32-.86-.5l22.8,12.4C985.59,314.58,985.88,314.74,986.17,314.9Z"/></clipPath><clipPath id="clip-path-28"><path class="cls-1" d="M985.32,314.4,962.52,302q-8-4.2-8-20.26l22.8,12.4Q977.28,310.19,985.32,314.4Z"/></clipPath><clipPath id="clip-path-29"><path class="cls-1" d="M1008.35,27.5,985.56,15.1c8.26-1.16,15.28-.37,20.64,2.45L1029,30C1023.63,27.13,1016.61,26.34,1008.35,27.5Z"/></clipPath><clipPath id="clip-path-30"><path class="cls-1" d="M987.28,36.48l-22.8-12.4q8.07-7.16,21.08-9l22.79,12.4Q995.34,29.33,987.28,36.48Z"/></clipPath><clipPath id="clip-path-31"><path class="cls-1" d="M977.75,58.23,955,45.83a28.59,28.59,0,0,1,9.53-21.75l22.8,12.4A28.52,28.52,0,0,0,977.75,58.23Z"/></clipPath><clipPath id="clip-path-32"><path class="cls-1" d="M665,361.18l-22.79-12.4a17.36,17.36,0,0,1-3-2L662,359.13A17.36,17.36,0,0,0,665,361.18Z"/></clipPath><clipPath id="clip-path-33"><path class="cls-1" d="M662,359.13l-22.79-12.4c-4.6-4.48-7.89-13-9.84-25.53a261.55,261.55,0,0,0-9-38.65c-3.72-12.26-10.52-22-20-28l22.8,12.4c9.48,6,16.27,15.73,20,28a261.78,261.78,0,0,1,9,38.64C654.08,346.1,657.37,354.65,662,359.13Z"/></clipPath><clipPath id="clip-path-34"><path class="cls-1" d="M623.16,267l-22.8-12.4a15.08,15.08,0,0,0-2.35-1.68l22.8,12.4A15.57,15.57,0,0,1,623.16,267Z"/></clipPath><clipPath id="clip-path-35"><path class="cls-1" d="M597.63,252.66l22.79,12.4.39.22L598,252.88C597.89,252.8,597.76,252.73,597.63,252.66Z"/></clipPath><clipPath id="clip-path-36"><path class="cls-1" d="M615.66,223.59l-22.79-12.4c14.54-3.14,25.19-16.74,25.75-17.45l22.8,12.4C640.86,206.85,630.2,220.45,615.66,223.59Z"/></clipPath><clipPath id="clip-path-37"><path class="cls-1" d="M633,205.88l-22.8-12.39a43.33,43.33,0,0,0,9.63-9.17,58.8,58.8,0,0,0,7.39-11.41L650,185.31a59.23,59.23,0,0,1-7.38,11.41A43.49,43.49,0,0,1,633,205.88Z"/></clipPath><clipPath id="clip-path-38"><path class="cls-1" d="M645.18,183.6l-22.79-12.4c5.6-7.12,8.92-15.5,11.06-24.73l22.79,12.4C654.1,168.1,650.79,176.48,645.18,183.6Z"/></clipPath><clipPath id="clip-path-39"><path class="cls-1" d="M651.42,158.33l-22.79-12.4c3.69-7.62,6.15-15.45,6.27-24.11l22.79,12.4C657.57,142.88,655.11,150.71,651.42,158.33Z"/></clipPath><clipPath id="clip-path-40"><path class="cls-1" d="M676,68.15l22.79,12.4a30.47,30.47,0,0,0-4.7-2.07,63.86,63.86,0,0,0-13.85-2.82l-22.79-12.4a64,64,0,0,1,13.85,2.82A30.47,30.47,0,0,1,676,68.15Z"/></clipPath><clipPath id="clip-path-41"><path class="cls-1" d="M679.43,75.62l-22.8-12.4.82,0,22.79,12.4Z"/></clipPath><clipPath id="clip-path-42"><path class="cls-1" d="M653.55,135.49l-22.79-12.4c3.56-8.79,5.35-17.62,3.48-27.06L657,108.43C658.9,117.87,657.11,126.7,653.55,135.49Z"/></clipPath><clipPath id="clip-path-43"><path class="cls-1" d="M674.34,75.5,651.55,63.1c1.78,0,3.45,0,5.08.12l22.8,12.4C677.79,75.54,676.12,75.46,674.34,75.5Z"/></clipPath><clipPath id="clip-path-44"><path class="cls-1" d="M653.24,76.14l-22.8-12.39c4-.42,8.78-.77,13.82-.86l22.79,12.4C662,75.38,657.27,75.73,653.24,76.14Z"/></clipPath><clipPath id="clip-path-45"><path class="cls-1" d="M631.07,113.47l-22.8-12.4c.48-1.92.84-3.7,1.33-5.59l22.79,12.4C631.91,109.77,631.54,111.55,631.07,113.47Z"/></clipPath><clipPath id="clip-path-46"><path class="cls-1" d="M569.64,215.36,546.85,203c13.57.89,30.07,10.54,44.23,8.55.6-.09,1.2-.19,1.79-.32l22.79,12.4c-.59.13-1.19.23-1.79.32C599.71,225.89,583.21,216.25,569.64,215.36Z"/></clipPath><clipPath id="clip-path-47"><path class="cls-1" d="M489.48,383.94l-22.79-12.4c-3.75-2.22-5.8-6-5.79-11.5l22.8,12.4C483.69,378,485.74,381.72,489.48,383.94Z"/></clipPath><clipPath id="clip-path-48"><path class="cls-1" d="M561.58,204.87l-22.8-12.4C566.07,143,606.33,124.9,608.45,124l22.79,12.4C629.12,137.3,588.86,155.39,561.58,204.87Z"/></clipPath><clipPath id="clip-path-49"><path class="cls-1" d="M611.84,117.1l-22.79-12.4c-.48-1.84-.88-3.52-1.33-5.47l22.79,12.39C611,113.57,611.36,115.26,611.84,117.1Z"/></clipPath><clipPath id="clip-path-50"><path class="cls-1" d="M590.38,127.44l-22.79-12.39c-.82-1.45-1.57-2.94-2.47-4.51l22.8,12.4C588.82,124.51,589.56,126,590.38,127.44Z"/></clipPath><clipPath id="clip-path-51"><path class="cls-1" d="M572.36,144.35,549.57,132c-1.05-1.16-2.05-2.33-3.15-3.66l22.8,12.4C570.31,142,571.32,143.19,572.36,144.35Z"/></clipPath><clipPath id="clip-path-52"><path class="cls-1" d="M486.51,118.06l-22.79-12.4c.4-5.24,2.95-10,7.56-14,4.9-4.17,9.65-6.85,14.26-7.6l22.79,12.4c-4.61.75-9.36,3.43-14.25,7.6C489.46,108.06,486.91,112.82,486.51,118.06Z"/></clipPath></defs><title>hnAsset 10hn</title><g id="Layer_2" data-name="Layer 2"><g id="Layer_1-2" data-name="Layer 1"><g class="cls-2"><g class="cls-2"><g class="cls-3"><g class="cls-2"><path class="cls-4" d="M1089.93,300.31l-22.79-12.39c-.29-.16-.57-.33-.85-.5l22.79,12.4c.28.17.56.34.85.49"/></g></g></g><g class="cls-2"><g class="cls-5"><g class="cls-2"><path class="cls-4" d="M1089.08,299.82l-22.79-12.4q-8-4.21-8-20.27l22.79,12.4q0,16.06,8,20.27"/></g></g></g><g class="cls-2"><g class="cls-6"><g class="cls-2"><path class="cls-7" d="M1112.12,12.92,1089.33.52a40,40,0,0,1,15.49.48l22.8,12.4a39.86,39.86,0,0,0-15.5-.48"/><path class="cls-8" d="M1127.62,13.4,1104.82,1a24.86,24.86,0,0,1,4.71,1.74l22.79,12.4a24.51,24.51,0,0,0-4.7-1.74"/><path class="cls-9" d="M1132.32,15.14l-22.79-12.4L1110,3l22.79,12.39-.44-.22"/></g></g></g><polygon class="cls-10" points="1081.07 279.55 1058.28 267.15 1058.72 31.25 1081.51 43.65 1081.07 279.55"/><g class="cls-2"><g class="cls-11"><g class="cls-2"><path class="cls-9" d="M1091.05,21.89l-22.79-12.4a33,33,0,0,1,3.06-2.4l22.79,12.4a35.93,35.93,0,0,0-3.06,2.4"/><path class="cls-8" d="M1094.11,19.49l-22.79-12.4a35.08,35.08,0,0,1,4.94-2.84l22.8,12.4a35.19,35.19,0,0,0-5,2.84"/><path class="cls-7" d="M1099.06,16.65l-22.8-12.4A45.39,45.39,0,0,1,1089.33.52l22.79,12.4a45.32,45.32,0,0,0-13.06,3.73"/></g></g></g><path class="cls-12" d="M1112.12,12.92c8.27-1.17,15.28-.37,20.64,2.44,5.78,3,6.45,13.48,6.43,23.29L1139.1,273c0,10-2.72,17.09-7.88,21.39-4.85,4-11.15,6.49-19.06,7.6l-1.6.2-1.54.24c-8.55,1.2-15.26.35-19.94-2.57q-8-4.21-8-20.27l.44-235.9a28.6,28.6,0,0,1,9.54-21.76Q1099.11,14.75,1112.12,12.92Z"/><g class="cls-2"><g class="cls-13"><g class="cls-2"><path class="cls-4" d="M1081.51,43.65l-22.79-12.4a30.13,30.13,0,0,1,1.78-10.37l22.8,12.4a29.85,29.85,0,0,0-1.79,10.37"/><path class="cls-14" d="M1083.3,33.28l-22.8-12.4a26.87,26.87,0,0,1,1.6-3.56l22.8,12.4a26.87,26.87,0,0,0-1.6,3.56"/><path class="cls-15" d="M1084.9,29.72l-22.8-12.4a29.33,29.33,0,0,1,1.75-2.83l22.79,12.4a27.42,27.42,0,0,0-1.74,2.83"/><path class="cls-16" d="M1086.64,26.89l-22.79-12.4a29.71,29.71,0,0,1,2.05-2.6l22.79,12.4a31.73,31.73,0,0,0-2,2.6"/><path class="cls-17" d="M1088.69,24.29l-22.79-12.4a33.5,33.5,0,0,1,2.36-2.4l22.79,12.4a31.55,31.55,0,0,0-2.36,2.4"/></g></g></g></g><g class="cls-2"><g class="cls-2"><g class="cls-18"><g class="cls-2"><path class="cls-4" d="M401.7,398.37,378.9,386c-5-2.75-8.54-8.11-9.09-15l22.79,12.4c.56,6.84,4,12.2,9.1,14.95"/></g></g></g><polygon class="cls-19" points="392.61 383.42 369.81 371.02 369.07 360.67 391.86 373.07 392.61 383.42"/><g class="cls-2"><g class="cls-20"><g class="cls-2"><path class="cls-7" d="M336.39,362.08l-22.79-12.4a30.13,30.13,0,0,0,8.62-2.59L345,359.49a30.13,30.13,0,0,1-8.62,2.59"/><path class="cls-8" d="M345,359.49l-22.79-12.4a34.59,34.59,0,0,0,4.82-2.78l22.79,12.4a33.48,33.48,0,0,1-4.82,2.78"/><path class="cls-9" d="M349.83,356.71,327,344.31a34.69,34.69,0,0,0,3.59-2.84l22.79,12.4a36.09,36.09,0,0,1-3.59,2.84"/><path class="cls-17" d="M353.42,353.87l-22.79-12.4a38.31,38.31,0,0,0,3-3.07l22.79,12.4a38.3,38.3,0,0,1-3,3.07"/><path class="cls-16" d="M356.46,350.8l-22.79-12.4a38.41,38.41,0,0,0,2.67-3.4l22.8,12.4a38.51,38.51,0,0,1-2.68,3.4"/><path class="cls-15" d="M359.14,347.4,336.34,335a37.75,37.75,0,0,0,2.43-3.93l22.79,12.4a39.45,39.45,0,0,1-2.42,3.93"/><path class="cls-14" d="M361.56,343.47l-22.79-12.4a39.36,39.36,0,0,0,2.25-5l22.79,12.4a38,38,0,0,1-2.25,5"/><path class="cls-4" d="M363.81,338.47,341,326.07a36.71,36.71,0,0,0,2.29-12.6l22.79,12.4a36.71,36.71,0,0,1-2.29,12.6"/></g></g></g><g class="cls-2"><g class="cls-21"><g class="cls-2"><path class="cls-7" d="M419.44,192.23l-22.8-12.4a17.77,17.77,0,0,1,6.82.35l22.79,12.4a17.72,17.72,0,0,0-6.81-.35"/><path class="cls-8" d="M426.25,192.58l-22.79-12.4a16,16,0,0,1,3.12,1.16l22.8,12.4a16.08,16.08,0,0,0-3.13-1.16"/><path class="cls-9" d="M429.38,193.74l-22.8-12.4.61.31L430,194.05l-.6-.31"/></g></g></g><polygon class="cls-10" points="366.1 325.87 343.31 313.47 343.38 272.56 366.18 284.96 366.1 325.87"/><polygon class="cls-22" points="315.05 365.08 292.26 352.68 313.6 349.68 336.39 362.08 315.05 365.08"/><polygon class="cls-22" points="400.68 194.87 377.88 182.47 396.64 179.83 419.44 192.23 400.68 194.87"/><polygon class="cls-10" points="392.14 224.59 369.35 212.19 369.38 193.5 392.17 205.9 392.14 224.59"/><g class="cls-2"><g class="cls-23"><g class="cls-2"><path class="cls-4" d="M392.17,205.9l-22.79-12.4a13.35,13.35,0,0,1,.76-4.63l22.79,12.4a13.58,13.58,0,0,0-.76,4.63"/><path class="cls-14" d="M392.93,201.27l-22.79-12.4a9.53,9.53,0,0,1,.59-1.33l22.8,12.4a10.88,10.88,0,0,0-.6,1.33"/><path class="cls-15" d="M393.53,199.94l-22.8-12.4a10.24,10.24,0,0,1,.61-1L394.13,199a10.2,10.2,0,0,0-.6,1"/><path class="cls-16" d="M394.13,199l-22.79-12.4a9.41,9.41,0,0,1,.66-.84l22.79,12.4a9.41,9.41,0,0,0-.66.84"/><path class="cls-17" d="M394.79,198.12,372,185.72c.25-.28.51-.54.77-.78l22.8,12.4a9.57,9.57,0,0,0-.78.78"/><path class="cls-9" d="M395.57,197.34l-22.8-12.4a11.24,11.24,0,0,1,1-.78l22.79,12.4a9.84,9.84,0,0,0-1,.78"/><path class="cls-8" d="M396.55,196.56l-22.79-12.4a11.91,11.91,0,0,1,1.51-.86l22.79,12.4a10.8,10.8,0,0,0-1.51.86"/><path class="cls-7" d="M398.06,195.7l-22.79-12.4a9.86,9.86,0,0,1,2.61-.83l22.8,12.4a9.89,9.89,0,0,0-2.62.83"/></g></g></g><g class="cls-2"><g class="cls-24"><g class="cls-2"><path class="cls-9" d="M299.23,362.35,276.43,350l.91.47,22.79,12.4-.9-.47"/><path class="cls-8" d="M300.13,362.82l-22.79-12.4a25.27,25.27,0,0,0,4.71,1.74l22.79,12.4a25.53,25.53,0,0,1-4.71-1.74"/><path class="cls-7" d="M304.84,364.56l-22.79-12.4a26.07,26.07,0,0,0,10.21.52l22.79,12.4a26.27,26.27,0,0,1-10.21-.52"/></g></g></g><g class="cls-2"><g class="cls-25"><g class="cls-2"><path class="cls-4" d="M366.18,285l-22.8-12.4c0-11.29-5.51-20.52-13.81-25l22.79,12.4c8.31,4.52,13.84,13.75,13.82,25"/></g></g></g><path class="cls-12" d="M419.44,192.23c10.93-1.53,19.79,6.85,19.77,18.65l-.31,164.33c0,11.81-8.91,22.53-19.85,24.07l-6.58.92c-10.4,1.46-19-5.73-19.87-16.78l-.74-10.35c-11,25.88-40.93,41.93-62.43,45.27l-1.14.16c-56.26,7.91-97.7-24.18-97.56-96.33.13-71.06,43.53-114.62,99.16-122.43l1.15-.16c25.66-3.6,50.19,6,61.1,25l0-18.68c0-9.32,7.46-10.88,8.51-11ZM366.1,325.87l.08-40.91c0-17.5-13.28-30.06-29.59-27.77l-21.34,3c-16.31,2.29-29.72,18.61-29.75,36.11l-.08,40.9c0,17.71,13.32,30.17,29.63,27.88l21.34-3c16.31-2.29,29.68-18.51,29.71-36.21"/><g class="cls-2"><g class="cls-26"><g class="cls-2"><path class="cls-4" d="M272.19,410.26l-22.8-12.39c-25.58-13.92-41.54-43.28-41.46-88.1,0-18.52,3-35.17,8.37-49.8l22.79,12.4c-5.36,14.63-8.33,31.28-8.36,49.8-.09,44.82,15.87,74.18,41.46,88.09"/><path class="cls-14" d="M239.09,272.37,216.3,260a119.88,119.88,0,0,1,6.91-15.42L246,257a119.88,119.88,0,0,0-6.91,15.42"/><path class="cls-15" d="M246,257l-22.79-12.4a111.93,111.93,0,0,1,6.94-11.28l22.8,12.4A110.21,110.21,0,0,0,246,257"/><path class="cls-16" d="M253,245.67l-22.8-12.4a110.44,110.44,0,0,1,7.54-9.56l22.79,12.4a107,107,0,0,0-7.53,9.56"/><path class="cls-17" d="M260.48,236.11l-22.79-12.4a106.41,106.41,0,0,1,8.65-8.73l22.79,12.4a106.41,106.41,0,0,0-8.65,8.73"/><path class="cls-9" d="M269.13,227.38,246.34,215a106.8,106.8,0,0,1,10.82-8.54L280,218.84a106.8,106.8,0,0,0-10.82,8.54"/><path class="cls-8" d="M280,218.84l-22.79-12.4a109.83,109.83,0,0,1,15.78-9.05l22.79,12.4A110.38,110.38,0,0,0,280,218.84"/><path class="cls-7" d="M295.73,209.79l-22.79-12.4a119,119,0,0,1,34.16-10l1.15-.16a72.77,72.77,0,0,1,28.21,1.45l22.8,12.4A72.64,72.64,0,0,0,331,199.58l-1.15.16a119,119,0,0,0-34.16,10"/><path class="cls-8" d="M359.26,201l-22.8-12.4A61.62,61.62,0,0,1,348.23,193L371,205.36A61.75,61.75,0,0,0,359.26,201"/><path class="cls-9" d="M371,205.36,348.23,193c.71.34,1.4.7,2.09,1.08l22.79,12.39c-.68-.37-1.38-.73-2.09-1.08"/></g></g></g></g><g class="cls-2"><g class="cls-2"><g class="cls-27"><g class="cls-2"><path class="cls-7" d="M195.89,390.37,173.1,378a14,14,0,0,1,5.54.23l22.8,12.4a14.11,14.11,0,0,0-5.55-.23"/><path class="cls-8" d="M201.44,390.6l-22.8-12.4a11.05,11.05,0,0,1,2.15.8l22.8,12.4a11.3,11.3,0,0,0-2.15-.8"/><path class="cls-9" d="M203.59,391.4,180.79,379c.14.06.28.14.41.21l22.8,12.4a4,4,0,0,0-.41-.21"/></g></g></g><polygon class="cls-22" points="105.85 403.02 83.06 390.62 173.1 377.97 195.89 390.37 105.85 403.02"/><g class="cls-2"><g class="cls-28"><g class="cls-2"><path class="cls-9" d="M97.73,401.64l-22.79-12.4.41.21,22.8,12.4-.42-.21"/><path class="cls-8" d="M98.15,401.85l-22.8-12.4a12.48,12.48,0,0,0,2.26.84l22.79,12.4a12.11,12.11,0,0,1-2.25-.84"/><path class="cls-7" d="M100.4,402.69l-22.79-12.4a15.38,15.38,0,0,0,5.45.33L105.85,403a15.63,15.63,0,0,1-5.45-.33"/></g></g></g><g class="cls-2"><g class="cls-29"><g class="cls-2"><path class="cls-4" d="M32.5,453.13,9.7,440.73A18.11,18.11,0,0,1,6,438l22.8,12.4a17.85,17.85,0,0,0,3.74,2.73"/></g></g></g><g class="cls-2"><g class="cls-30"><g class="cls-2"><path class="cls-4" d="M28.76,450.4,6,438a19.9,19.9,0,0,1-6-13.64l22.79,12.39a19.87,19.87,0,0,0,6,13.65"/></g></g></g><g class="cls-2"><g class="cls-31"><g class="cls-2"><path class="cls-7" d="M61.45,163.3l-22.8-12.39a41,41,0,0,1,9.56-.06,38.54,38.54,0,0,1,6.46,1.07l22.79,12.4A38.36,38.36,0,0,0,71,163.25a41.47,41.47,0,0,0-9.55.05"/><path class="cls-8" d="M77.46,164.32l-22.79-12.4a27.47,27.47,0,0,1,5.26,1.92l22.79,12.4a27.23,27.23,0,0,0-5.26-1.92"/><path class="cls-9" d="M82.72,166.24l-22.79-12.4c.28.14.56.28.83.43l22.79,12.4c-.27-.15-.55-.29-.83-.43"/></g></g></g><g class="cls-2"><g class="cls-32"><g class="cls-2"><path class="cls-7" d="M58.61,163.87l-22.79-12.4a22.49,22.49,0,0,1,2.83-.56l22.8,12.39a24.18,24.18,0,0,0-2.84.57"/></g></g></g><polygon class="cls-10" points="22.79 436.75 0 424.36 0.46 175.11 23.26 187.51 22.79 436.75"/><g class="cls-2"><g class="cls-33"><g class="cls-2"><path class="cls-4" d="M23.26,187.51.46,175.11A10.62,10.62,0,0,1,1.14,172l22.79,12.4a10.28,10.28,0,0,0-.67,3.13"/><path class="cls-14" d="M23.93,184.38,1.14,172a16.87,16.87,0,0,1,1-2.09l22.79,12.4a16.87,16.87,0,0,0-.95,2.09"/><path class="cls-15" d="M24.88,182.29,2.09,169.89a23.21,23.21,0,0,1,1.36-2.19l22.79,12.4a23.21,23.21,0,0,0-1.36,2.19"/><path class="cls-16" d="M26.24,180.1,3.45,167.7a27.16,27.16,0,0,1,1.89-2.39l22.79,12.4a27.16,27.16,0,0,0-1.89,2.39"/><path class="cls-17" d="M28.13,177.71,5.34,165.31a27.9,27.9,0,0,1,2.42-2.44l22.79,12.4a29.38,29.38,0,0,0-2.42,2.44"/><path class="cls-9" d="M30.55,175.27,7.76,162.87c.46-.42.93-.82,1.4-1.19s1-.77,1.57-1.14l22.79,12.4c-.53.37-1.06.75-1.57,1.14s-.93.77-1.4,1.19"/><path class="cls-8" d="M33.52,172.94l-22.79-12.4a48.39,48.39,0,0,1,6.89-3.93L40.41,169a49,49,0,0,0-6.89,3.93"/><path class="cls-7" d="M40.41,169l-22.79-12.4A57.4,57.4,0,0,1,23,154.39a49.76,49.76,0,0,1,9.93-2.68,25,25,0,0,1,2.88-.24l22.79,12.4a25,25,0,0,0-2.88.24,49.51,49.51,0,0,0-9.92,2.68,57.59,57.59,0,0,0-5.4,2.22"/></g></g></g><path class="cls-12" d="M61.45,163.3a41.47,41.47,0,0,1,9.55-.05,31.63,31.63,0,0,1,12.79,3.55,11.44,11.44,0,0,1,6,10.08L87.93,380.8a27.06,27.06,0,0,0,4.93,16q4.32,7.07,13,6.19l90-12.65c5.17-.73,9.09.94,12,4.55,2.68,3.63,4.11,8.34,4.1,13.91a32.83,32.83,0,0,1-4.16,15.74,18.24,18.24,0,0,1-12,9L42.38,455.17a17.5,17.5,0,0,1-13.62-4.77,19.87,19.87,0,0,1-6-13.65l.47-249.24c.21-4.71,4.56-10.18,8.69-13.43a51.23,51.23,0,0,1,13.86-7.29,49.51,49.51,0,0,1,9.92-2.68,25,25,0,0,1,2.88-.24A24.18,24.18,0,0,1,61.45,163.3Z"/></g><g class="cls-2"><polygon class="cls-10" points="879.31 256.63 856.51 244.24 856.93 221.46 879.73 233.86 879.31 256.63"/><g class="cls-2"><g class="cls-34"><g class="cls-2"><path class="cls-7" d="M835.66,308.68l-22.79-12.4,1.87-.25c8.41-1.18,15.47-3.08,21.14-5.75l22.79,12.4c-5.66,2.67-12.73,4.57-21.13,5.75l-1.88.25"/><path class="cls-8" d="M858.67,302.68l-22.79-12.4a38.4,38.4,0,0,0,5.53-3.15l22.79,12.4a37.87,37.87,0,0,1-5.53,3.15"/><path class="cls-9" d="M864.2,299.53l-22.79-12.4a29.83,29.83,0,0,0,3.06-2.41l22.79,12.4a29.83,29.83,0,0,1-3.06,2.41"/><path class="cls-17" d="M867.26,297.12l-22.79-12.4a27.62,27.62,0,0,0,2.16-2.17L869.42,295a24.55,24.55,0,0,1-2.16,2.17"/><path class="cls-16" d="M869.42,295l-22.79-12.4.8-1c.42-.51.82-1,1.21-1.61l22.8,12.4c-.39.56-.8,1.09-1.22,1.61-.26.32-.52.64-.8,1"/><path class="cls-15" d="M871.44,292.38,848.64,280a29.21,29.21,0,0,0,1.92-3.12l22.79,12.4a32,32,0,0,1-1.91,3.12"/><path class="cls-14" d="M873.35,289.26l-22.79-12.4a36.93,36.93,0,0,0,2.19-4.92l22.8,12.4a38.28,38.28,0,0,1-2.2,4.92"/><path class="cls-4" d="M875.55,284.34l-22.8-12.4q4-10.81,3.76-27.7l22.8,12.39q.2,16.89-3.76,27.71"/></g></g></g><polygon class="cls-10" points="879.73 233.86 856.93 221.46 856.98 198.32 879.77 210.72 879.73 233.86"/><g class="cls-2"><g class="cls-35"><g class="cls-2"><path class="cls-7" d="M906,129.24l-22.79-12.4a43,43,0,0,1,4.3.86l22.8,12.4a40.56,40.56,0,0,0-4.31-.86"/><path class="cls-8" d="M910.27,130.1l-22.8-12.4a33.1,33.1,0,0,1,6.25,2.29l22.79,12.4a32.75,32.75,0,0,0-6.24-2.29"/><path class="cls-9" d="M916.51,132.39,893.72,120l1.06.55,22.8,12.4c-.35-.19-.71-.37-1.07-.55"/></g></g></g><g class="cls-2"><g class="cls-36"><g class="cls-2"><path class="cls-9" d="M806.43,306.43,783.63,294l.8.41,22.8,12.4-.8-.41"/><path class="cls-8" d="M807.23,306.84l-22.8-12.4a25.78,25.78,0,0,0,4.88,1.78l22.8,12.4a25.53,25.53,0,0,1-4.88-1.78"/><path class="cls-7" d="M812.11,308.62l-22.8-12.4c5.71,1.48,12.94,1.57,21.77.33l1.79-.27,22.79,12.4-1.79.27c-8.83,1.24-16,1.15-21.76-.33"/></g></g></g><g class="cls-2"><g class="cls-37"><g class="cls-2"><path class="cls-4" d="M879.77,210.72,857,198.32c.41-16.62-2.4-28.09-9.05-34.4l22.8,12.4c6.65,6.31,9.45,17.78,9,34.4"/></g></g></g><g class="cls-2"><g class="cls-38"><g class="cls-2"><path class="cls-4" d="M870.73,176.32l-22.8-12.4a19.22,19.22,0,0,0-4.74-3.59L866,172.73a19.22,19.22,0,0,1,4.75,3.59"/></g></g></g><g class="cls-2"><g class="cls-39"><g class="cls-2"><path class="cls-7" d="M843,132.71l-22.8-12.4q5.67-.93,10.94-1.66c23-3.24,40.27-3.88,52-1.81L906,129.24c-11.77-2.07-29-1.43-52,1.81q-5.26.73-10.93,1.66"/></g></g></g><g class="cls-2"><g class="cls-40"><g class="cls-2"><path class="cls-4" d="M758.06,344.08l-22.79-12.4c-7.42-4-12.66-10.78-15.8-20.26-4.53-14.05-6.26-36.53-5.82-67.76.07-33.44,2.79-58.36,8-74.56.24-.72.49-1.42.74-2.12l22.8,12.4c-.26.7-.51,1.4-.75,2.12-5.16,16.2-7.89,41.12-7.95,74.56-.45,31.23,1.28,53.71,5.81,67.76Q747,338,758.06,344.08"/><path class="cls-14" d="M745.15,179.38,722.35,167a63.22,63.22,0,0,1,3.6-8l22.79,12.4a63.18,63.18,0,0,0-3.59,8"/><path class="cls-15" d="M748.74,171.35,726,159a55,55,0,0,1,3.38-5.5l22.79,12.4a56.9,56.9,0,0,0-3.38,5.5"/><path class="cls-16" d="M752.12,165.85l-22.79-12.4a52.15,52.15,0,0,1,3.5-4.44l22.79,12.4a52.15,52.15,0,0,0-3.5,4.44"/><path class="cls-17" d="M755.62,161.41,732.83,149a50.07,50.07,0,0,1,4-4l22.8,12.4a48.58,48.58,0,0,0-4,4"/><path class="cls-9" d="M759.6,157.4,736.8,145a52,52,0,0,1,5.06-4l22.8,12.4a49.71,49.71,0,0,0-5.06,4"/><path class="cls-8" d="M764.66,153.4,741.86,141a56.2,56.2,0,0,1,8-4.59l22.79,12.4a55.54,55.54,0,0,0-8,4.59"/><path class="cls-7" d="M772.66,148.81l-22.79-12.4c.91-.42,1.83-.83,2.78-1.22,13.07-5.57,31.78-10,56.05-13.39q5.55-.78,11.49-1.49l22.8,12.4q-6,.71-11.5,1.49c-24.27,3.41-43,7.82-56,13.38-1,.4-1.87.8-2.78,1.23"/></g></g></g><path class="cls-12" d="M932.15,152.73q5.58,20.34,4.86,66.14c-.06,32.83-2.26,57.41-6.13,74-4.44,16.58-13.86,28.4-28.35,35.62-12.7,6.12-32,11.07-57.9,14.71-3.18.45-6.47.88-9.85,1.28q-5.44.89-10.53,1.6-34.71,4.88-53.31,2c-14.47-1.95-24-10-28.68-24.29-4.53-14.05-6.26-36.53-5.81-67.76.06-33.44,2.79-58.36,7.95-74.56,5.45-16.3,15.49-27.49,31-33.92,13.07-5.56,31.78-10,56-13.38q5.55-.78,11.5-1.49,5.67-.93,10.93-1.66c23-3.24,40.27-3.88,52-1.81C919.34,131.19,928.29,138.73,932.15,152.73Zm-52.38,58c.41-16.62-2.39-28.09-9-34.4-6.18-6.48-17.4-8.52-33.8-6.22-15.69,2.21-26.87,7.4-33.46,15.67-6.39,8.15-9.67,20.67-9.41,37.35l-.38,46.69c-.75,16.82,2.39,27.93,8.71,33.71s16.52,7.53,31.48,5.43l1.79-.27,1.88-.25c15.69-2.2,26.71-6.92,32.68-14.44,6.29-7.71,9.29-20.2,9.09-37.36l.42-22.77,0-23.14"/></g><g class="cls-2"><g class="cls-2"><g class="cls-41"><g class="cls-2"><path class="cls-4" d="M986.17,314.9l-22.79-12.4c-.3-.16-.58-.32-.86-.5l22.8,12.4c.27.18.56.34.85.5"/></g></g></g><g class="cls-2"><g class="cls-42"><g class="cls-2"><path class="cls-4" d="M985.32,314.4,962.52,302q-8-4.2-8-20.26l22.8,12.4q0,16,8,20.26"/></g></g></g><g class="cls-2"><g class="cls-43"><g class="cls-2"><path class="cls-7" d="M1008.35,27.5,985.56,15.1a39.86,39.86,0,0,1,15.5.49L1023.85,28a39.85,39.85,0,0,0-15.5-.49"/><path class="cls-8" d="M1023.85,28l-22.79-12.4a23.84,23.84,0,0,1,4.7,1.73l22.79,12.4a23.84,23.84,0,0,0-4.7-1.73"/><path class="cls-9" d="M1028.55,29.72l-22.79-12.4.44.23L1029,30l-.44-.23"/></g></g></g><polygon class="cls-10" points="977.31 294.14 954.51 281.74 954.95 45.83 977.75 58.23 977.31 294.14"/><g class="cls-2"><g class="cls-44"><g class="cls-2"><path class="cls-9" d="M987.28,36.48l-22.8-12.4a32.32,32.32,0,0,1,3.06-2.4l22.79,12.4a31,31,0,0,0-3.05,2.4"/><path class="cls-8" d="M990.33,34.08l-22.79-12.4a35.19,35.19,0,0,1,5-2.84l22.79,12.4a34.23,34.23,0,0,0-4.95,2.84"/><path class="cls-7" d="M995.28,31.24l-22.79-12.4a45.08,45.08,0,0,1,13.07-3.74l22.79,12.4a45.17,45.17,0,0,0-13.07,3.74"/></g></g></g><path class="cls-12" d="M1008.35,27.5c8.26-1.16,15.28-.37,20.64,2.45,5.78,3,6.44,13.48,6.42,23.28l-.08,234.32c0,10-2.71,17.08-7.89,21.38-4.84,4-11.13,6.49-19.05,7.6-.53.08-1.06.14-1.61.21l-1.53.23c-8.56,1.2-15.26.35-19.93-2.57q-8-4.22-8-20.26l.44-235.91a28.52,28.52,0,0,1,9.53-21.75Q995.35,29.33,1008.35,27.5Z"/><g class="cls-2"><g class="cls-45"><g class="cls-2"><path class="cls-4" d="M977.75,58.23,955,45.83a30,30,0,0,1,1.79-10.38l22.79,12.4a30,30,0,0,0-1.78,10.38"/><path class="cls-14" d="M979.53,47.85l-22.79-12.4a27.46,27.46,0,0,1,1.6-3.56l22.79,12.4a27.46,27.46,0,0,0-1.6,3.56"/><path class="cls-15" d="M981.13,44.29l-22.79-12.4a27.26,27.26,0,0,1,1.74-2.82l22.8,12.39a28.6,28.6,0,0,0-1.75,2.83"/><path class="cls-16" d="M982.88,41.46l-22.8-12.39a29.71,29.71,0,0,1,2-2.6l22.79,12.4a31,31,0,0,0-2,2.59"/><path class="cls-17" d="M984.92,38.87l-22.79-12.4a33.22,33.22,0,0,1,2.35-2.39l22.8,12.4a31.38,31.38,0,0,0-2.36,2.39"/></g></g></g></g><g class="cls-2"><g class="cls-2"><g class="cls-46"><g class="cls-2"><path class="cls-4" d="M665,361.18l-22.79-12.4a17.36,17.36,0,0,1-3-2L662,359.13a17.36,17.36,0,0,0,3,2.05"/></g></g></g><g class="cls-2"><g class="cls-47"><g class="cls-2"><path class="cls-4" d="M662,359.13l-22.79-12.4c-4.6-4.48-7.89-13-9.84-25.53a261.55,261.55,0,0,0-9-38.65c-3.72-12.26-10.52-22-20-28l22.8,12.4c9.48,6,16.27,15.73,20,28a261.78,261.78,0,0,1,9,38.64c1.94,12.51,5.23,21.06,9.83,25.54"/></g></g></g><g class="cls-2"><g class="cls-48"><g class="cls-2"><path class="cls-4" d="M623.16,267l-22.8-12.4a15.08,15.08,0,0,0-2.35-1.68l22.8,12.4a15.57,15.57,0,0,1,2.35,1.68"/></g></g></g><g class="cls-2"><g class="cls-49"><g class="cls-2"><path class="cls-4" d="M620.81,265.28,598,252.88c-.12-.08-.25-.15-.38-.22l22.79,12.4.39.22"/></g></g></g><g class="cls-2"><g class="cls-50"><g class="cls-2"><path class="cls-7" d="M615.66,223.59l-22.79-12.4a34.58,34.58,0,0,0,7.32-2.52L623,221.07a34.38,34.38,0,0,1-7.32,2.52"/><path class="cls-8" d="M623,221.07l-22.79-12.4a44.57,44.57,0,0,0,6.39-3.72l22.79,12.4a45.53,45.53,0,0,1-6.39,3.72"/><path class="cls-9" d="M629.37,217.35,606.58,205a55.37,55.37,0,0,0,5.63-4.47l22.8,12.4a56.69,56.69,0,0,1-5.64,4.47"/><path class="cls-17" d="M635,212.88l-22.8-12.4a61.15,61.15,0,0,0,4.89-4.92L639.89,208a60.74,60.74,0,0,1-4.88,4.92"/><path class="cls-16" d="M639.89,208l-22.79-12.4c.88-1,1.41-1.68,1.52-1.82l22.8,12.4c-.12.14-.64.81-1.53,1.82"/></g></g></g><g class="cls-2"><g class="cls-51"><g class="cls-2"><path class="cls-8" d="M633,205.88l-22.8-12.39.42-.29,22.79,12.4-.41.28"/><path class="cls-9" d="M633.42,205.6l-22.79-12.4a35,35,0,0,0,3.64-2.89l22.8,12.4a36.17,36.17,0,0,1-3.65,2.89"/><path class="cls-17" d="M637.07,202.71l-22.8-12.4a46.31,46.31,0,0,0,3.68-3.73L640.74,199a47.91,47.91,0,0,1-3.67,3.73"/><path class="cls-16" d="M640.74,199,618,186.58c.64-.73,1.27-1.49,1.89-2.26,1-1.21,1.95-2.47,2.86-3.77L645.5,193q-1.38,2-2.86,3.77c-.62.77-1.25,1.53-1.9,2.26"/><path class="cls-15" d="M645.5,193l-22.8-12.4a55.57,55.57,0,0,0,3.56-5.76l22.8,12.4A57.34,57.34,0,0,1,645.5,193"/><path class="cls-14" d="M649.06,187.19l-22.8-12.4c.34-.62.66-1.25,1-1.88L650,185.31c-.31.63-.63,1.26-1,1.88"/></g></g></g><g class="cls-2"><g class="cls-52"><g class="cls-2"><path class="cls-16" d="M645.18,183.6l-22.79-12.4c.55-.69,1.07-1.4,1.58-2.12l22.79,12.4c-.5.72-1,1.43-1.58,2.12"/><path class="cls-15" d="M646.76,181.48,624,169.08a50.38,50.38,0,0,0,3.16-5.15l22.8,12.4a52.31,52.31,0,0,1-3.17,5.15"/><path class="cls-14" d="M649.93,176.33l-22.8-12.4a60.92,60.92,0,0,0,3.46-7.72l22.79,12.4a60.87,60.87,0,0,1-3.45,7.72"/><path class="cls-4" d="M653.38,168.61l-22.79-12.4a82.67,82.67,0,0,0,2.86-9.74l22.79,12.4a82.67,82.67,0,0,1-2.86,9.74"/></g></g></g><g class="cls-2"><g class="cls-53"><g class="cls-2"><path class="cls-14" d="M651.42,158.33l-22.79-12.4c1.09-2.25,2.07-4.52,2.92-6.82l22.79,12.4c-.85,2.3-1.83,4.57-2.92,6.82"/><path class="cls-4" d="M654.34,151.51l-22.79-12.4a51.59,51.59,0,0,0,3.35-17.29l22.79,12.4a51.59,51.59,0,0,1-3.35,17.29"/></g></g></g><g class="cls-2"><g class="cls-54"><g class="cls-2"><path class="cls-7" d="M680.24,75.66l-22.79-12.4A72.06,72.06,0,0,1,668,65.08l22.79,12.39a73.2,73.2,0,0,0-10.5-1.81"/><path class="cls-8" d="M690.74,77.47,668,65.08c1.15.29,2.27.63,3.35,1a32.08,32.08,0,0,1,3.63,1.51L697.72,80a32.08,32.08,0,0,0-3.63-1.51c-1.08-.37-2.2-.71-3.35-1"/><path class="cls-9" d="M697.72,80l-22.79-12.4,1.07.56,22.79,12.4c-.35-.19-.7-.38-1.07-.56"/></g></g></g><g class="cls-2"><g class="cls-55"><g class="cls-2"><path class="cls-7" d="M679.43,75.62l-22.8-12.4.82,0,22.79,12.4-.81,0"/></g></g></g><g class="cls-2"><g class="cls-56"><g class="cls-2"><path class="cls-14" d="M653.55,135.49l-22.79-12.4c.31-.76.6-1.52.88-2.28l22.79,12.4c-.28.76-.57,1.52-.88,2.28"/><path class="cls-4" d="M654.43,133.21l-22.79-12.4c3-8,4.31-16.16,2.6-24.78L657,108.43c1.71,8.62.36,16.74-2.6,24.78"/></g></g></g><g class="cls-2"><g class="cls-57"><g class="cls-2"><path class="cls-7" d="M674.34,75.5,651.55,63.1c1.78,0,3.45,0,5.08.12l22.8,12.4c-1.64-.08-3.31-.16-5.09-.12"/></g></g></g><polygon class="cls-58" points="667.05 75.29 644.26 62.89 651.55 63.1 674.34 75.5 667.05 75.29"/><g class="cls-2"><g class="cls-59"><g class="cls-2"><path class="cls-7" d="M653.24,76.14l-22.8-12.39c4-.42,8.78-.77,13.82-.86l22.79,12.4c-5,.09-9.78.44-13.81.85"/></g></g></g><g class="cls-2"><g class="cls-60"><g class="cls-2"><path class="cls-4" d="M631.07,113.47l-22.8-12.4c.48-1.92.84-3.7,1.33-5.59l22.79,12.4c-.48,1.89-.85,3.67-1.32,5.59"/></g></g></g><g class="cls-2"><g class="cls-61"><g class="cls-2"><path class="cls-7" d="M569.64,215.36,546.85,203a52.33,52.33,0,0,1,9.61,1.71l22.79,12.4a52.18,52.18,0,0,0-9.61-1.71"/><path class="cls-8" d="M579.25,217.07l-22.79-12.4c5.67,1.48,11.62,3.59,17.51,5.12l22.79,12.4c-5.89-1.54-11.83-3.64-17.51-5.12"/><path class="cls-7" d="M596.76,222.19,574,209.79c5.85,1.52,11.65,2.48,17.11,1.72.6-.09,1.2-.19,1.79-.32l22.79,12.4c-.59.13-1.19.23-1.79.32-5.45.76-11.26-.2-17.11-1.72"/></g></g></g><g class="cls-2"><g class="cls-62"><g class="cls-2"><path class="cls-4" d="M489.48,383.94l-22.79-12.4c-3.75-2.22-5.8-6-5.79-11.5l22.8,12.4c0,5.53,2,9.28,5.78,11.5"/></g></g></g><g class="cls-2"><g class="cls-63"><g class="cls-2"><path class="cls-15" d="M561.58,204.87l-22.8-12.4a179.37,179.37,0,0,1,10.15-16.28l22.8,12.4a177.18,177.18,0,0,0-10.15,16.28"/><path class="cls-16" d="M571.73,188.59l-22.8-12.4a173.28,173.28,0,0,1,12-15.27l22.79,12.4a175.12,175.12,0,0,0-12,15.27"/><path class="cls-17" d="M583.76,173.32,561,160.92A171.17,171.17,0,0,1,574.73,147l22.8,12.4a171.21,171.21,0,0,0-13.77,13.9"/><path class="cls-9" d="M597.53,159.42,574.73,147A163.72,163.72,0,0,1,591,134.17l22.79,12.4a162.24,162.24,0,0,0-16.21,12.85"/><path class="cls-8" d="M613.74,146.57,591,134.17a120.91,120.91,0,0,1,16.66-9.84l22.79,12.4a120.91,120.91,0,0,0-16.66,9.84"/><path class="cls-7" d="M630.4,136.73l-22.79-12.4c.42-.2.7-.32.84-.38l22.79,12.39-.84.39"/></g></g></g><g class="cls-2"><g class="cls-64"><g class="cls-2"><path class="cls-4" d="M611.84,117.1l-22.79-12.4c-.48-1.84-.88-3.52-1.33-5.47l22.79,12.39c.45,1.95.85,3.64,1.33,5.48"/></g></g></g><g class="cls-2"><g class="cls-65"><g class="cls-2"><path class="cls-4" d="M590.38,127.44l-22.79-12.39c-.82-1.45-1.57-2.94-2.47-4.51l22.8,12.4c.9,1.57,1.64,3.06,2.46,4.5"/></g></g></g><g class="cls-2"><g class="cls-66"><g class="cls-2"><path class="cls-4" d="M572.36,144.35,549.57,132c-1.05-1.16-2.05-2.33-3.15-3.66l22.8,12.4c1.09,1.33,2.1,2.5,3.14,3.66"/></g></g></g><polygon class="cls-22" points="508.33 96.51 485.54 84.11 630.45 63.74 653.24 76.14 508.33 96.51"/><polygon class="cls-10" points="483.7 372.44 460.9 360.04 463.72 105.66 486.51 118.06 483.7 372.44"/><g class="cls-2"><g class="cls-67"><g class="cls-2"><path class="cls-4" d="M486.51,118.06l-22.79-12.4a18.32,18.32,0,0,1,1.08-5l22.79,12.4a18.32,18.32,0,0,0-1.08,5"/><path class="cls-14" d="M487.59,113.09l-22.79-12.4a18.39,18.39,0,0,1,1.1-2.45l22.79,12.4a19.77,19.77,0,0,0-1.1,2.45"/><path class="cls-15" d="M488.69,110.64,465.9,98.24a21,21,0,0,1,1.27-2L490,108.59a21,21,0,0,0-1.27,2"/><path class="cls-16" d="M490,108.59l-22.79-12.4a21.71,21.71,0,0,1,1.56-2l22.79,12.4a21.71,21.71,0,0,0-1.56,2"/><path class="cls-17" d="M491.52,106.62l-22.79-12.4a24.72,24.72,0,0,1,2-2.06l22.79,12.4a23.28,23.28,0,0,0-2,2.06"/><path class="cls-9" d="M493.56,104.56l-22.79-12.4.51-.45a48.21,48.21,0,0,1,3.92-3L498,101.08a48.11,48.11,0,0,0-3.91,3l-.52.45"/><path class="cls-8" d="M498,101.08,475.2,88.68a32.78,32.78,0,0,1,4.72-2.76l22.8,12.4a32.86,32.86,0,0,0-4.73,2.76"/><path class="cls-7" d="M502.72,98.32l-22.8-12.4a21,21,0,0,1,5.62-1.81l22.79,12.4a20.82,20.82,0,0,0-5.61,1.81"/></g></g></g><path class="cls-12" d="M721.08,115.52a176.76,176.76,0,0,1,2.8,38.58,157.75,157.75,0,0,1-.76,19.93c-.24,2.16-.44,4.41-.83,6.64a86.2,86.2,0,0,1-7.48,26.57A111.65,111.65,0,0,1,702,225.71c-5.33,6.55-8.51,12.85-8.91,18,0,2.75,1,6.8,3.3,11.76l5.34,11.1L710.54,287l8.1,26.77C720.78,322.6,722,330.2,722,336c-.74,11.86-5.26,18.91-13.51,22a102.08,102.08,0,0,1-18.89,4.47c-2,.29-4.05.51-6.05.68l-11.56.29a19.28,19.28,0,0,1-10-4.29c-4.6-4.48-7.89-13-9.83-25.54a261.78,261.78,0,0,0-9-38.64c-3.72-12.26-10.51-22-20-28a15.57,15.57,0,0,0-2.35-1.68,16.64,16.64,0,0,0-3.36-1.4,22.93,22.93,0,0,0-6.51-.89,26.6,26.6,0,0,0-3.89-.23,98,98,0,0,0-16.92,1A132.27,132.27,0,0,0,574,267.1a33,33,0,0,0-6.34,2.18,4.31,4.31,0,0,0-1.77.61,44.26,44.26,0,0,0-4.27,1.69c-1.15.73-2.4,1.48-3.55,2.16-5.81,3.92-9,10.22-9.73,19.54l-1,68.14c-.4,9.17-4.15,15.34-10.92,18.67a54.06,54.06,0,0,1-18.87,6.39c-.39.06-.79.11-1.18.15l-13.39.54a28.87,28.87,0,0,1-13.46-3.23c-3.74-2.22-5.79-6-5.78-11.5l2.81-254.38c.4-5.24,2.95-10,7.57-14,4.89-4.17,9.64-6.85,14.25-7.6L653.24,76.14c4-.41,8.78-.76,13.81-.85l7.29.21c1.78,0,3.45,0,5.09.12l.81,0a63.86,63.86,0,0,1,13.85,2.82,30.39,30.39,0,0,1,5.8,2.7,29.77,29.77,0,0,1,6.85,5.51C714.11,93.94,718.84,103.57,721.08,115.52Zm-63.39,18.7c-1.5.45-2.73.85-4.14,1.27,3.56-8.79,5.35-17.62,3.48-27.06a56.73,56.73,0,0,1-14.43,3.69c-3.82.53-7.67.88-11.53,1.35.47-1.92.84-3.7,1.32-5.59a41.19,41.19,0,0,0-20.55,9.22c-.48-1.84-.88-3.53-1.33-5.48-7.89,3.62-14.37,9.1-20.13,15.82-.82-1.44-1.56-2.93-2.46-4.5a82.48,82.48,0,0,0-15.56,21.41c-1-1.16-2.05-2.33-3.14-3.66-.64.95-12.62,18.95-13.86,34.27-.13,5.51.13,18.51,6.22,29.91,27.28-49.48,67.54-67.57,69.66-68.53-45.2,36.16-58,65-61.6,79,13.57.89,30.07,10.53,44.23,8.55.6-.09,1.2-.19,1.79-.32,14.54-3.14,25.2-16.74,25.76-17.45l-8.41-.26a43.49,43.49,0,0,0,9.63-9.16A59.23,59.23,0,0,0,650,185.31c-1.61-.62-3.15-1.17-4.84-1.71,5.61-7.12,8.92-15.5,11.06-24.73-1.71-.17-3.22-.37-4.82-.54,3.69-7.62,6.15-15.45,6.27-24.11"/></g></g></g></svg>