<svg xmlns="http://www.w3.org/2000/svg" xmlns:xlink="http://www.w3.org/1999/xlink" viewBox="0 0 2000 2000"><defs><style>.cls-1{opacity:0.38;fill:url(#White_Black_2);}.cls-2{fill:url(#radial-gradient);}.cls-3{fill:#a61c24;}.cls-4{mask:url(#mask);}</style><linearGradient id="White_Black_2" x1="922.04" y1="1230.11" x2="928.47" y2="1435.87" gradientTransform="matrix(1, 0, -0.24, 1, 322.72, 0)" gradientUnits="userSpaceOnUse"><stop offset="0" stop-color="#fff"/><stop offset="1" stop-color="#231f20"/></linearGradient><radialGradient id="radial-gradient" cx="1000" cy="1000" r="1000" gradientTransform="translate(0 700) scale(1 0.3)" gradientUnits="userSpaceOnUse"><stop offset="0" stop-color="#fff100"/><stop offset="0.15" stop-color="#bbb100"/><stop offset="0.31" stop-color="#797200"/><stop offset="0.46" stop-color="#454100"/><stop offset="0.59" stop-color="#1f1e00"/><stop offset="0.69" stop-color="#080800"/><stop offset="0.75"/><stop offset="0.79"/><stop offset="1"/></radialGradient><mask id="mask" x="237.47" y="1208.4" width="1373.64" height="270.06" maskUnits="userSpaceOnUse"><polygon class="cls-1" points="1545.97 1478.46 237.47 1478.46 302.6 1208.4 1611.11 1208.4 1545.97 1478.46"/></mask></defs><title>hnAsset 9hn</title><g id="Layer_2" data-name="Layer 2"><g id="Layer_1-2" data-name="Layer 1"><circle class="cls-2" cx="1000" cy="1000" r="1000"/><path class="cls-3" d="M1574.17,912.75c-6-3.71-13.92-5.56-23.21-5.56q-14.61,0-23.66,6.26c-5.8,4.18-10.67,10.82-10.67,21.26v245.57q0,16.7,9,22.27c5.57,3.94,13.69,5.8,24.13,5.57,9.75.23,17.41-1.39,23.21-5.11s8.81-10.67,8.81-21.11l-.39-244C1581.43,927.73,1580.66,916.7,1574.17,912.75Z"/><path class="cls-3" d="M522.06,1166.12H420.9q-9.73-.34-14.61-8.35a29.81,29.81,0,0,1-5.57-17.4l1.62-212.07c-.23-4.87-2.55-8.58-6.73-11.37a42.31,42.31,0,0,0-14.38-5.57,43.4,43.4,0,0,0-13.92-1.16,46.69,46.69,0,0,0-14.39,1.16,51.27,51.27,0,0,0-15.54,5.57c-4.65,2.79-9.52,7.83-9.75,12.71v259.45a23,23,0,0,0,6.73,15.08,23.38,23.38,0,0,0,15.31,7H522.06a17.24,17.24,0,0,0,13.46-7.65,29.16,29.16,0,0,0,4.64-15.78,25.26,25.26,0,0,0-4.64-15.08A16.19,16.19,0,0,0,522.06,1166.12Z"/><path class="cls-3" d="M1319.52,998.14c-15.26-4.48-38.7-6.25-70.77-5.61-33.63-.64-59,1.13-75.88,5.61-17.46,4.42-28.72,14.6-34.81,30.77-5.77,16.11-8.79,41.66-8.79,76.48-.43,32.44,1.56,56.1,6.68,71.4,5.34,15.53,16,25.33,32.29,29.48q24,6.56,71.73,5.61c34.71.65,60.09-1.67,76.1-6.74,16.27-5.39,26.84-16.33,31.79-32.93,4.32-16.76,6.74-42,6.74-76.2q.64-47.62-5.6-69.58C1344.63,1011.29,1334.55,1002.13,1319.52,998.14Zm-29.27,105.09-.43,23.66c.27,17.89-3.07,30.45-10.13,37.56s-20,10.51-38.81,10.24c-17.89.27-30.18-3-37.4-10.24-7.11-7-10.67-19-9.86-36.38l.32-48.55c-.32-17.41,3.34-30,10.51-37.51,7.39-7.66,19.94-11.43,37.57-11.43,18.43,0,31,3.77,38,11.43,7.49,7.54,10.67,19.88,10.24,37.13Z"/><path class="cls-3" d="M1457.58,912.75c-6-3.71-13.93-5.56-23.21-5.56q-14.61,0-23.66,6.26c-5.8,4.18-10.68,10.82-10.68,21.26v245.57q0,16.7,9,22.27c5.57,3.94,13.69,5.8,24.13,5.57,9.75.23,17.41-1.39,23.21-5.11s8.81-10.67,8.81-21.11l-.39-244C1464.84,927.73,1464.07,916.7,1457.58,912.75Z"/><path class="cls-3" d="M772.87,992.53H751.8c-1.18,0-9.54.54-9.54,10.24v19.46c-12.29-21.34-39.88-35-68.71-35-63.11-.54-112.48,38.48-112.48,113,0,75.61,47.27,115.12,111.13,114.58,24.14-.32,57.77-12.67,70.06-38l.86,10.89a22.28,22.28,0,0,0,22.37,20.37h7.38a22.17,22.17,0,0,0,22.26-22.15V1014.84A22.31,22.31,0,0,0,772.87,992.53Zm-59.66,131.34a33.37,33.37,0,0,1-33.3,33.36h-24a33.42,33.42,0,0,1-33.36-33.36V1081.3A33.47,33.47,0,0,1,655.92,1048h24a33.42,33.42,0,0,1,33.3,33.26Z"/><path class="cls-3" d="M1095.53,924.68a40.19,40.19,0,0,0-7.7-6.74,42.68,42.68,0,0,0-6.52-3.66,83.81,83.81,0,0,0-15.58-5l-.92-.16c-1.83-.32-3.71-.65-5.71-.86l-8-1.3h-.16c-5.66-.64-11-1-15.52-1.13H872.58c-5.18.11-10.51,2.21-16,5.82-5.17,3.45-8,8-8.46,13.42l-2.64,264.46c0,5.76,2.32,10,6.52,12.82a38.43,38.43,0,0,0,15.14,5.34l15,1.4a59,59,0,0,0,22.53-3.88c7.6-2.48,11.8-8.35,12.23-17.84l1-70.81c.76-9.6,4.37-15.69,10.89-18.92,1.29-.54,2.69-1.13,4-1.73,1.34-.37,2.91-.8,4.2-1.13h.59a4.38,4.38,0,0,1,2-.38,34.67,34.67,0,0,1,7.11-1.34c10.56-1.3,24.68-1.73,37.19.32a33.2,33.2,0,0,1,4.36.81,29.76,29.76,0,0,1,7.33,1.89,22.34,22.34,0,0,1,3.77,1.94,19.8,19.8,0,0,1,2.64,2.1c10.68,7.65,18.33,18.75,22.53,32.06a281.61,281.61,0,0,1,10.19,41.56c2.21,13.31,5.93,22.69,11.1,28a26.1,26.1,0,0,0,11.26,5.93l13,1.4a118.87,118.87,0,0,0,28-1.72c9.27-2,14.33-8.68,15.14-20.91,0-6-1.4-14.13-3.83-23.66l-9.16-29-10-22.53-6-12.34c-2.59-5.5-3.72-9.86-3.72-12.72.43-5.34,4-11.43,10-17.46a97.18,97.18,0,0,0,14.39-17.36c4.31-7.76,7-16.6,8.35-26.57.43-2.26.65-4.58.92-6.79a149.11,149.11,0,0,0,.81-20.64,175.9,175.9,0,0,0-3.24-40.58C1109.17,944,1103.83,933.3,1095.53,924.68Zm-55,42.31c-.12,9-2.87,16.8-7,24.19,1.8.41,3.5.84,5.41,1.27-2.38,9.3-6.09,17.54-12.38,24.13,1.9.81,3.64,1.6,5.45,2.49a50.41,50.41,0,0,1-8.28,10.8,39,39,0,0,1-10.8,8.13l9.45,1.5s-12.57,13.25-28.9,14.39-35.85-12.26-51.74-15.3c4-14,18.33-42.22,69.06-73.26,0,0-47.58,13.64-78.15,61.16-6.86-12.76-7.18-26.33-7-32l0,0c1.37-15.77,15.5-33.66,15.5-33.66,1.23,1.55,2.37,2.92,3.55,4.28a71.08,71.08,0,0,1,17.43-20c1,1.77,1.85,3.42,2.79,5.05a54.72,54.72,0,0,1,22.58-13.53c.52,2.1,1,3.91,1.51,5.9a42.45,42.45,0,0,1,23.07-6.59c-.54,1.89-.95,3.69-1.48,5.62,9.92.16,19.8,1,29.18-1.45,2.12,10.11.12,19-3.86,27.67C1037.45,967.48,1038.83,967.25,1040.52,967Z"/><g class="cls-4"><path class="cls-3" d="M1573.89,1455.28c-6.09,3-14,4.45-23.29,4.45q-14.62,0-23.57-5c-5.73-3.33-10.49-8.64-10.32-17l4-196.18q.29-13.35,9.42-17.8c5.63-3.15,13.78-4.63,24.22-4.44,9.75-.19,17.38,1.11,23.12,4.07s8.64,8.53,8.47,16.87l-4.38,194.9C1581.4,1443.31,1580.45,1452.13,1573.89,1455.28Z"/><path class="cls-3" d="M525.93,1252.87H424.77q-9.75.27-14.75,6.67a21.23,21.23,0,0,0-5.86,13.9l-1.84,169.42c-.31,3.89-2.69,6.86-6.91,9.08a50.07,50.07,0,0,1-14.48,4.45,54,54,0,0,1-13.94.93,57.68,57.68,0,0,1-14.37-.93,59.16,59.16,0,0,1-15.45-4.45c-4.6-2.22-9.39-6.26-9.54-10.15l4.24-207.27c.33-4.45,2.73-8.53,7-12a26.83,26.83,0,0,1,15.43-5.56H526.67c5.79.37,10.16,2.41,13.33,6.11a19.65,19.65,0,0,1,4.38,12.61,17.92,17.92,0,0,1-4.88,12C536.18,1251,531.73,1252.87,525.93,1252.87Z"/><path class="cls-3" d="M1350.58,1364.46c4.44-11.71,6.65-30.22,6.74-55.58.56-27.3-1.45-47.49-5.49-60.88-4.69-13.26-15.07-22-31.26-26.31-15.92-4-41.27-5.9-76-5.38q-47.76-.78-71.82,4.48c-16.34,3.31-27.17,11.15-32.76,23.55-5.37,12.23-7.76,31.13-7.85,57.05-.57,27.81,2,48.22,7.53,61.09,5.82,12.92,16.92,21.06,34.31,24.59,16.85,3.57,42.15,5,75.79,4.47,32.06.52,55.53-.9,70.86-4.47C1335.74,1383.88,1346,1376.56,1350.58,1364.46Zm-57.88-42.11c.15,13.78-3.24,23.64-10.85,29.67-7.08,6.11-19.75,9.13-38.18,9.13-17.63,0-30.12-3-37.38-9.13-7-6-10.5-16.06-9.9-30l.47-38.79c-.52-13.91,3.23-23.51,10.46-29.06,7.34-5.77,19.68-8.4,37.57-8.18,18.76-.22,31.8,2.41,38.64,8.18s10.08,15.71,9.52,30l0,18.9Z"/><path class="cls-3" d="M1457.3,1455.28c-6.09,3-14,4.45-23.29,4.45q-14.62,0-23.57-5c-5.73-3.33-10.49-8.64-10.32-17l4-196.18q.28-13.35,9.42-17.8c5.63-3.15,13.78-4.63,24.22-4.44,9.75-.19,17.38,1.11,23.12,4.07s8.64,8.53,8.47,16.87l-4.38,194.9C1464.81,1443.31,1463.86,1452.13,1457.3,1455.28Z"/><path class="cls-3" d="M796.52,1373.72l2.8-136.66c.2-9.81-9.61-17.69-21.89-17.69H770c-11.69,0-21.48,7-22.7,16.27l-1,8.7c-11.87-20.24-45.3-30.1-69.44-30.35-63.85-.44-111.76,31.12-113,91.53-1.22,59.5,47.51,90.67,110.63,90.24,28.83,0,56.65-10.89,69.29-27.94l-.32,15.54c-.16,7.75,8.18,8.18,9.37,8.18H773.9C786.19,1391.54,796.32,1383.54,796.52,1373.72Zm-80.83-53.09c-.3,14.56-15.52,26.57-33.85,26.57h-24c-18.32,0-33.11-12-32.82-26.57l.7-34c.3-14.73,15.58-26.65,33.91-26.65h24c18.32,0,33.06,11.92,32.76,26.65Z"/><path class="cls-3" d="M1112.15,1420.09a113.92,113.92,0,0,0,3.89-32.42,94.55,94.55,0,0,0-.47-16.49c-.23-1.77-.41-3.62-.8-5.43a51.36,51.36,0,0,0-7.92-21.22,81.93,81.93,0,0,0-14.11-13.87c-5.88-4.82-9.34-9.68-9.68-14,0-2.28,1.25-5.76,3.92-10.16l6.24-9.86,10.34-18,9.64-23.21c2.58-7.62,4.11-14.08,4.21-18.9-.61-9.77-5.56-15.11-14.8-16.71a148.32,148.32,0,0,0-28-1.37l-13,1.12a29.31,29.31,0,0,0-11.36,4.73c-5.26,4.26-9.13,11.76-11.56,22.39a190.46,190.46,0,0,1-10.87,33.2,52.39,52.39,0,0,1-23,25.61,19.92,19.92,0,0,1-2.67,1.68,24.88,24.88,0,0,1-3.81,1.55,36.32,36.32,0,0,1-7.36,1.51,43.26,43.26,0,0,1-4.38.65,173.77,173.77,0,0,1-37.19.25,42.65,42.65,0,0,1-7.09-1.07,5.45,5.45,0,0,1-2-.3h-.59c-1.29-.26-2.84-.61-4.18-.91-1.29-.47-2.68-1-4-1.38-6.47-2.58-10-7.44-10.58-15.11l.19-56.57c-.28-7.58-4.39-12.27-11.95-14.25a71.69,71.69,0,0,0-22.46-3.1l-15.06,1.12a45.71,45.71,0,0,0-15.23,4.26c-4.25,2.28-6.64,5.64-6.73,10.25L848,1445.41c.35,4.3,3.13,8,8.25,10.72,5.43,2.88,10.74,4.56,15.91,4.65H1035c4.53-.13,9.87-.39,15.54-.91h.16l8-1c2-.17,3.89-.43,5.73-.69l.92-.13a100.49,100.49,0,0,0,15.65-4,46.68,46.68,0,0,0,6.59-2.93,40.09,40.09,0,0,0,7.81-5.38A48.75,48.75,0,0,0,1112.15,1420.09Zm-75.67-8.72c3.84,6.9,5.69,14,3.41,22.11-9.34-2-19.23-1.29-29.15-1.16.5,1.55.87,3,1.39,4.49a50,50,0,0,1-23-5.26c-.58,1.59-1,3-1.6,4.71a57.22,57.22,0,0,1-22.37-10.81c-1,1.3-1.82,2.62-2.87,4a61.08,61.08,0,0,1-17.1-16c-1.2,1.08-2.36,2.17-3.62,3.41,0,0-13.84-14.29-15-26.89l0,0a44.27,44.27,0,0,1,7.56-25.56c29.79,38,77.14,48.85,77.14,48.85-50.22-24.79-64.11-47.3-67.86-58.52,16-2.43,35.67-13.14,52-12.23s28.67,11.51,28.67,11.51l-9.47,1.19a38.63,38.63,0,0,1,10.66,6.5,40.89,40.89,0,0,1,8.1,8.63c-1.82.7-3.57,1.33-5.48,2,6.18,5.27,9.75,11.85,12,19.28-1.92.35-3.63.69-5.44,1,4,5.91,6.64,12.14,6.61,19.33C1039.44,1411.75,1038.07,1411.56,1036.48,1411.37Z"/></g></g></g></svg>