<svg xmlns="http://www.w3.org/2000/svg" viewBox="0 0 808.65 683.85"><defs><style>.cls-1,.cls-10,.cls-11,.cls-12,.cls-13,.cls-14,.cls-15,.cls-16,.cls-17,.cls-18,.cls-19,.cls-2,.cls-20,.cls-21,.cls-22,.cls-23,.cls-24,.cls-25,.cls-26,.cls-27,.cls-28,.cls-29,.cls-3,.cls-30,.cls-31,.cls-32,.cls-33,.cls-34,.cls-35,.cls-36,.cls-37,.cls-38,.cls-39,.cls-4,.cls-40,.cls-5,.cls-6,.cls-7,.cls-8,.cls-9{isolation:isolate;font-family:ArialMT, Arial;}.cls-1{font-size:91px;}.cls-1,.cls-14,.cls-17,.cls-2,.cls-28,.cls-32,.cls-35{fill:#ffb03b;}.cls-2{font-size:85px;}.cls-3{font-size:80px;}.cls-10,.cls-15,.cls-20,.cls-22,.cls-26,.cls-3,.cls-31,.cls-34,.cls-40{fill:#b64926;}.cls-4{font-size:69px;}.cls-11,.cls-12,.cls-25,.cls-33,.cls-4,.cls-9{fill:#468966;}.cls-5{font-size:64px;}.cls-13,.cls-19,.cls-21,.cls-27,.cls-29,.cls-37,.cls-38,.cls-5,.cls-7{fill:#fff0a5;}.cls-6,.cls-7{font-size:59px;}.cls-16,.cls-18,.cls-23,.cls-24,.cls-30,.cls-36,.cls-39,.cls-6,.cls-8{fill:#8e2800;}.cls-8,.cls-9{font-size:53px;}.cls-10,.cls-11{font-size:43px;}.cls-12,.cls-13,.cls-14,.cls-15,.cls-16{font-size:37px;}.cls-17,.cls-18,.cls-19,.cls-20{font-size:32px;}.cls-21,.cls-22,.cls-23{font-size:27px;}.cls-24,.cls-25,.cls-26,.cls-27,.cls-28{font-size:21px;}.cls-29,.cls-30,.cls-31,.cls-32,.cls-33{font-size:16px;}.cls-34,.cls-35,.cls-36,.cls-37{font-size:11px;}.cls-38,.cls-39,.cls-40{font-size:5px;}</style></defs><title>hnAsset 1hn</title><g id="Layer_2" data-name="Layer 2"><g id="Layer_1-2" data-name="Layer 1"><text class="cls-1" transform="translate(241.32 320.28)">banhmi</text><text class="cls-2" transform="translate(187.71 388.56)">crispy pork</text><text class="cls-3" transform="translate(198.5 246.68)">meat balls</text><text class="cls-4" transform="translate(198.41 446.96)">roasted pork</text><text class="cls-4" transform="translate(174.14 178.96)">bacon eggs</text><text class="cls-5" transform="translate(341.51 137.08)">tofu</text><text class="cls-6" transform="translate(56.09 333.08)">veggie</text><text class="cls-7" transform="translate(576.84 271.73) rotate(56.23)">lapho</text><text class="cls-8" transform="translate(615.25 258.57) rotate(51.12)">fried rice</text><text class="cls-9" transform="matrix(0.71, 0.7, -0.7, 0.71, 463.6, 476.53)">lasalad</text><text class="cls-8" transform="translate(67.7 285.35)">laboon</text><text class="cls-10" transform="translate(513.21 483.48)">spring rolls</text><text class="cls-11" transform="translate(691.42 258.6) rotate(59.27)">bbq pork</text><text class="cls-12" transform="translate(21.85 330.63) rotate(30.26)">spring rolls</text><text class="cls-13" transform="translate(67.56 471.75)">bbq chicken</text><text class="cls-14" transform="translate(350.23 26.72) rotate(34.25)">crispy pork</text><text class="cls-15" transform="translate(547.39 515.75)">bacon eggs</text><text class="cls-15" transform="translate(194.81 135.75)">fried rice</text><text class="cls-14" transform="translate(265.98 87.75)">lasalad</text><text class="cls-16" transform="matrix(0.54, 0.84, -0.84, 0.54, 594.72, 145.27)">banhmi</text><text class="cls-16" transform="translate(610.53 423.75)">laboon</text><text class="cls-12" transform="translate(83.33 239.75)">veggie</text><text class="cls-14" transform="matrix(0.74, -0.67, 0.67, 0.74, 642.65, 608)">lapho</text><text class="cls-12" transform="translate(398.12 31.75)">tofu</text><text class="cls-17" transform="translate(74.21 501.88)">spring rolls</text><text class="cls-18" transform="translate(621.32 453.88)">fried rice</text><text class="cls-19" transform="translate(67.72 413.06) rotate(14.26)">laboon</text><text class="cls-19" transform="translate(581.33 537.88)">veggie</text><text class="cls-17" transform="translate(594.33 125.88)">lapho</text><text class="cls-18" transform="translate(125.05 365.88)">tofu</text><text class="cls-20" transform="translate(673.05 233.88)">tofu</text><text class="cls-21" transform="translate(371.98 337.88)">lasalad</text><text class="cls-22" transform="translate(480.96 337.88)">banhmi</text><text class="cls-22" transform="translate(229.3 105.88)">laboon</text><text class="cls-22" transform="translate(19.02 328) rotate(-55.17)">veggie</text><text class="cls-23" transform="translate(277.24 265.88)">lapho</text><text class="cls-23" transform="translate(435.97 265.88)">tofu</text><text class="cls-24" transform="translate(201.99 194.15)">rice paper rolls</text><text class="cls-25" transform="translate(199.22 402.15)">spring rolls</text><text class="cls-26" transform="matrix(0.96, 0.29, -0.29, 0.96, 594.89, 79.57)">fried rice</text><text class="cls-24" transform="translate(494.78 402.15)">lasalad</text><text class="cls-24" transform="translate(82.78 526.15)">lasalad</text><text class="cls-26" transform="translate(464.5 77.41) rotate(-66.07)">laboon</text><text class="cls-24" transform="translate(283.36 334.15)">laboon</text><text class="cls-26" transform="translate(122.95 210.15)">veggie</text><text class="cls-26" transform="translate(586.95 558.15)">veggie</text><text class="cls-26" transform="translate(491.54 266.15)">lapho</text><text class="cls-24" transform="translate(559.54 194.15)">lapho</text><text class="cls-24" transform="translate(368.33 255.42) rotate(28.04)">tofu</text><text class="cls-27" transform="translate(419.89 466.15)">tofu</text><text class="cls-28" transform="translate(439.89 498.15)">tofu</text><text class="cls-29" transform="matrix(0.88, -0.47, 0.47, 0.88, 633.42, 626.8)">steamed rice</text><text class="cls-29" transform="translate(10.17 348.08) rotate(26.83)">bbq chicken</text><text class="cls-30" transform="matrix(0.6, 0.8, -0.8, 0.6, 751.09, 307.82)">crispy pork</text><text class="cls-31" transform="translate(379.97 167.72) rotate(53.97)">fried rice</text><text class="cls-32" transform="translate(671.43 212.11) rotate(-70.59)">bbq pork</text><text class="cls-33" transform="translate(61.78 440.28)">lasalad</text><text class="cls-33" transform="translate(633.17 144.28)">banhmi</text><text class="cls-31" transform="matrix(0.75, -0.67, 0.67, 0.75, 30.4, 267.52)">banhmi</text><text class="cls-30" transform="translate(515.82 551.38) rotate(44.23)">laboon</text><text class="cls-32" transform="translate(756.78 438.32) rotate(-26.35)">veggie</text><text class="cls-29" transform="translate(334.45 56.28)">lapho</text><text class="cls-33" transform="translate(438.39 374.31) rotate(-75.31)">tofu</text><text class="cls-33" transform="translate(416.81 388.28)">tofu</text><text class="cls-34" transform="translate(97.57 296.28)">chicken wings</text><text class="cls-35" transform="translate(715.71 492.28)">roasted pork</text><text class="cls-34" transform="translate(440.13 200.28)">steamed rice</text><text class="cls-36" transform="translate(72.76 216.28)">bbq chicken</text><text class="cls-34" transform="translate(144.26 192.28)">crispy pork</text><text class="cls-34" transform="translate(603.9 680.28)">bacon eggs</text><text class="cls-35" transform="translate(108.25 448.28)">meat balls</text><text class="cls-36" transform="matrix(0.84, 0.55, -0.55, 0.84, 559.3, 149.46)">meat balls</text><text class="cls-34" transform="translate(413.58 44.28)">bbq pork</text><text class="cls-37" transform="translate(428.36 476.28)">banhmi</text><text class="cls-38" transform="translate(407.71 404.55)">crispy pork</text><text class="cls-39" transform="translate(378.43 394.88) rotate(-60.77)">meat balls</text><text class="cls-40" transform="translate(411.39 396.55)">banhmi</text></g></g></svg>